<?xml version="1.0" encoding="utf-8"?>
<!-- Generator: Adobe Illustrator 25.4.1, SVG Export Plug-In . SVG Version: 6.00 Build 0)  -->
<svg version="1.1" id="Warstwa_1" xmlns="http://www.w3.org/2000/svg" xmlns:xlink="http://www.w3.org/1999/xlink" x="0px" y="0px"
	 viewBox="0 0 100 125" style="enable-background:new 0 0 100 125;" xml:space="preserve">
<style type="text/css">
	.st0{display:none;}
	.st1{display:inline;fill:#D45B5F;}
	.st2{display:inline;}
	.st3{fill:#D45B5F;}
	.st4{display:none;fill:#D45B5F;}
</style>
<g>
	<g class="st0">
		<path class="st1" d="M84.4,33H15.6c-1.7,0-3.1-1.4-3.1-3.1l0,0c0-1.7,1.4-3.1,3.1-3.1h68.8c1.7,0,3.1,1.4,3.1,3.1l0,0
			C87.5,31.6,86.1,33,84.4,33z"/>
		<path class="st1" d="M84.4,61.1H71.9c-1.7,0-3.1-1.4-3.1-3.1l0,0c0-1.7,1.4-3.1,3.1-3.1h12.5c1.7,0,3.1,1.4,3.1,3.1l0,0
			C87.5,59.7,86.1,61.1,84.4,61.1z"/>
		<path class="st1" d="M15.6,89.2h68.8c1.7,0,3.1-1.4,3.1-3.1l0,0c0-1.7-1.4-3.1-3.1-3.1H15.6c-1.7,0-3.1,1.4-3.1,3.1l0,0
			C12.5,87.9,13.9,89.2,15.6,89.2z"/>
		<path class="st1" d="M15.6,61.1h40.6c1.7,0,3.1-1.4,3.1-3.1l0,0c0-1.7-1.4-3.1-3.1-3.1H15.6c-1.7,0-3.1,1.4-3.1,3.1l0,0
			C12.5,59.7,13.9,61.1,15.6,61.1z"/>
	</g>
	<g class="st0">
		<path class="st1" d="M49.5,93.8c-0.7,0-1.4-0.3-1.9-0.8c-1.4-1.4-33.9-34-33.9-52.1C13.7,29,21.4,21,32.8,21
			c6.2,0,11.4,2.3,15,6.1c1.2,1.3,3.2,1.3,4.3,0c3.6-3.8,8.8-6.1,15-6.1C78.8,21,87,29.5,87,41.7c0,7.5-6.1,18.4-18.1,32.6
			C60.3,84.5,51.5,92.9,51.4,93C50.9,93.5,50.2,93.8,49.5,93.8z M32.8,26.4c-8.4,0-13.7,5.5-13.7,14.5c0,11.5,17.9,33,28.4,44.2
			c1.1,1.2,3.1,1.2,4.2,0.1c11-11.1,29.9-32.5,29.9-43.4c0-9.3-5.7-15.2-14.5-15.2c-8.5,0-14.4,5.5-14.5,13.5c0,1.5-1.1,2.8-2.6,2.9
			c-1.6,0.1-2.9-1.2-2.9-2.7C47.3,32,41.3,26.4,32.8,26.4z"/>
	</g>
	<g class="st0">
		<g class="st2">
			<path class="st3" d="M43,98.4c-0.5,0-1-0.1-1.4-0.4c-1.1-0.6-1.8-1.9-1.7-3.1l1.6-20c0.1-1.7,1.6-3,3.4-2.9
				c1.7,0.1,3,1.6,2.9,3.4l-0.4,4.7c-0.1,0.8,1,1.2,1.4,0.5L64.7,56c0.3-0.5,0-1.2-0.7-1.2H53.2c-0.5,0-1.1-0.1-1.5-0.4
				c-1.2-0.6-1.8-1.9-1.6-3.2l1.8-14.5c0.1-0.8-1-1.2-1.4-0.5L35.6,58.3c-0.3,0.5,0,1.2,0.6,1.2h8.9c1.6,0,3.1,1.2,3.2,2.8
				c0.2,1.9-1.3,3.4-3.1,3.4H29c-0.8,0-1.6-0.3-2.2-0.8c-1.2-1.1-1.3-2.8-0.5-4l28.1-41.7c0.7-1,1.9-1.6,3.1-1.4
				c1.7,0.3,2.9,1.8,2.7,3.5l-3.5,27.3H71c0.8,0,1.6,0.3,2.2,0.8c1.2,1.1,1.3,2.8,0.5,4L45.6,97C45,97.9,44,98.4,43,98.4z"/>
		</g>
	</g>
	<g class="st0">
		<path class="st1" d="M89.8,93.5L67.4,69.8c-1.3,1.6-2.8,3.1-4.4,4.5l22.4,23.4c1.3,1.3,3.4,1.2,4.5-0.2
			C90.9,96.3,90.8,94.6,89.8,93.5z"/>
		<path class="st1" d="M62.6,67.1c-5.2,6.3-13.3,10.1-22.1,9.6C26.9,75.8,16,64.5,15.6,50.9c-0.4-15.5,12.5-28.1,28.1-27.2
			c12.8,0.7,23.4,10.8,24.8,23.5c0.4,3.9,0,7.7-1.1,11.1c-0.4,1.1-0.1,2.3,0.7,3.1l0,0c1.6,1.7,4.5,1.1,5.2-1.1
			c1.3-3.9,1.8-8.1,1.5-12.5c-1.1-16.4-14.5-29.6-31-30.4c-18.6-0.9-34,13.7-34.4,32C9,67.2,23.2,82.3,41,83
			c11,0.4,20.9-4.6,27.1-12.6L64.9,67C64.3,66.4,63.2,66.4,62.6,67.1z"/>
	</g>
	<g class="st0">
		<g class="st2">
			<g>
				<path class="st3" d="M56.6,89.2c-0.7,0-1.3,0.4-1.8,0.9c-1.1,1.4-2.9,2.3-4.8,2.3s-3.7-0.9-4.8-2.3c-0.4-0.5-1.1-0.9-1.8-0.9
					s-1.4,0-2.1,0c-1.8,0-2.9,1.9-2,3.4c2.2,3.6,6.1,6,10.7,6s8.5-2.4,10.7-6c0.9-1.5-0.2-3.5-2-3.4C58,89.2,57.3,89.2,56.6,89.2z"
					/>
			</g>
			<path class="st3" d="M74.9,68.5L74.9,68.5l-0.2-0.1c-0.7-0.5-5.2-4.3-5.2-20.6c0-5.6-0.9-10.1-2.8-13.4c-1-1.8-3.6-2.2-5-0.6
				c0,0,0,0,0,0.1c-0.9,1-1,2.5-0.4,3.7c1.3,2.2,1.9,5.5,1.9,10.3c0,20.7,6.9,25.3,8.8,26.2c2.2,1.2,2.2,2.2,2.2,2.7
				c0,0.4-0.4,1.3-0.7,1.6c0,0-3.7,1.5-23.5,1.5c-20.2,0-23.5-1.5-23.5-1.5c-0.3-0.3-0.7-1.2-0.7-1.6c0-0.5,0-1.5,2.2-2.7
				c1.6-0.8,7.9-5.4,7.9-26.2C35.9,38.4,38.2,33,50,33c3.6,0,6.8-2.1,8.3-5.1c-2.4-0.7-5.2-1.1-8.3-1.1c-13.9,0-20.3,6.7-20.3,21.1
				c0,16.8-4.3,20.4-4.6,20.7c-3.7,2-5.5,4.8-5.5,8.2c0,2.5,1.5,6.2,4.5,7.4c1.7,1.2,6.5,2,26,2s24.4-0.8,26-2
				c2.9-1.2,4.5-4.9,4.5-7.4C80.5,73.3,78.6,70.5,74.9,68.5z"/>
			<path class="st3" d="M50,20.5c1.7,0,3.1,1.4,3.1,3.1s-1.4,3.1-3.1,3.1s-3.1-1.4-3.1-3.1S48.3,20.5,50,20.5 M50,14.2
				c-5.2,0-9.4,4.2-9.4,9.4S44.8,33,50,33s9.4-4.2,9.4-9.4S55.2,14.2,50,14.2L50,14.2z"/>
		</g>
	</g>
	<g class="st0">
		<g class="st2">
			<path class="st3" d="M71.9,93.9c-0.7,0-1.5-0.3-2.1-0.8L55.9,80.7c-0.6-0.5-1.3-0.8-2.1-0.8h-32c-5.2,0-9.4-4.2-9.4-9.4V33
				c0-5.2,4.2-9.4,9.4-9.4H78c5.2,0,9.4,4.2,9.4,9.4v37.5c0,5.2-4.2,9.4-9.4,9.4h-6.2c-1.7,0-3.1-1.4-3.1-3.1s1.4-3.1,3.1-3.1H78
				c1.7,0,3.1-1.4,3.1-3.1V33c0-1.7-1.4-3.1-3.1-3.1H21.9c-1.7,0-3.1,1.4-3.1,3.1v37.5c0,1.7,1.4,3.1,3.1,3.1h32
				c2.3,0,4.5,0.9,6.3,2.4L74,88.5c1.3,1.2,1.4,3.1,0.2,4.4C73.6,93.6,72.7,93.9,71.9,93.9z"/>
		</g>
	</g>
	<path class="st4" d="M76.6,43.9L76.6,43.9C76.5,29,64.6,17.4,50,17.4S23.5,29,23.4,43.9l0,0l0,0l0,0l0,0C23.5,64.1,47,84.5,48,85.4
		c0.6,0.5,1.3,0.8,2,0.8s1.4-0.3,2-0.8C53,84.5,76.5,64.2,76.6,43.9L76.6,43.9C76.6,44,76.6,44,76.6,43.9
		C76.6,44,76.6,43.9,76.6,43.9z M52.2,76.6c-1.2,1.2-3.2,1.2-4.4,0C41.3,70,29.7,56.5,29.7,44c0-11,9.1-20.3,20.3-20.3
		S70.3,33,70.3,44C70.3,56.5,58.7,70,52.2,76.6z M76.6,86.1c0,8.2-13.4,12.5-26.6,12.5s-26.6-4.3-26.6-12.5c0-3.8,2.9-6.7,7.3-8.8
		c1.2-0.6,2.7-0.2,3.6,0.8c0,0,0,0,0,0.1c1.3,1.6,0.8,3.9-1.1,4.8c-2.4,1.2-3.6,2.4-3.6,3.2c0,1.9,6.9,6.2,20.3,6.2
		s20.3-4.4,20.3-6.2c0-0.8-1.2-2-3.6-3.2c-1.8-0.9-2.4-3.2-1.1-4.8c0,0,0,0,0-0.1c0.9-1,2.4-1.4,3.6-0.8
		C73.7,79.4,76.6,82.3,76.6,86.1z M50,33c-6,0-10.9,4.9-10.9,10.9s4.9,11,10.9,11S60.9,50,60.9,44S56,33,50,33z M50,48.6
		c-2.6,0-4.7-2.1-4.7-4.7s2.1-4.7,4.7-4.7s4.7,2.1,4.7,4.7S52.6,48.6,50,48.6z"/>
	<g class="st0">
		<path class="st1" d="M50,74.4c-9,0-16.4-7.4-16.4-16.4S41,41.6,50,41.6S66.4,49,66.4,58c0,1.3-0.2,2.6-0.5,3.9
			c-0.4,1.7-2.1,2.7-3.8,2.3c-1.7-0.4-2.7-2.1-2.3-3.8c0.2-0.8,0.3-1.6,0.3-2.4c0-5.6-4.6-10.2-10.2-10.2S39.8,52.4,39.8,58
			S44.4,68.2,50,68.2c1.2,0,2.4-0.2,3.6-0.6c1.6-0.6,3.4,0.2,4,1.8s-0.2,3.4-1.8,4C53.9,74.1,52,74.4,50,74.4z M62,89.2v-3l1.9,2.1
			c1.8,1.8,4.1,2.7,6.6,2.7s4.8-1,6.6-2.7l3.3-3.3c1.8-1.8,2.7-4.1,2.7-6.6s-1-4.7-2.8-6.5l-2.1-2h3c5.2,0,9.8-4.5,9.8-9.7v-4.7
			c0-5.2-4.6-9.7-9.8-9.7h-3l2.1-1.9c3.7-3.7,3.7-9.5,0-13.2L77,27.4c-1.8-1.8-4.1-2.7-6.6-2.7s-4.7,1-6.5,2.8L62,29.7v-2.9
			c0-5.2-4.5-9.8-9.7-9.8h-4.7c-5.2,0-9.7,4.6-9.7,9.8v3L36,27.7c-1.8-1.8-4.1-2.7-6.6-2.7s-4.8,1-6.6,2.7L19.5,31
			c-3.7,3.7-3.6,9.5,0,13.1l2.1,1.9h-3c-5,0-9.6,4.5-9.6,9.7v4.7c0,5.2,4.6,9.7,9.8,9.7h3L19.7,72c-3.7,3.7-3.7,9.5,0,13.2l3.3,3.3
			c1.8,1.8,4.1,2.7,6.6,2.7s4.7-1,6.5-2.8l1.9-2.1v3c0,5.2,4.5,9.8,9.7,9.8h4.7C57.5,99,62,94.4,62,89.2z M34.9,80.9L31.8,84
			c-0.6,0.6-1.4,0.9-2.2,0.9c-0.8,0-1.6-0.3-2.2-0.9L24,80.6c-1.2-1.2-1.2-3.2,0-4.4l3.1-3.1c1.6-1.6,2.1-4.3,1.2-6.4
			c-0.9-2.1-2.9-3.7-5.2-3.7h-4.4C17,63,16,62.1,16,60.3v-4.7c0-1.7,1-2.7,2.8-2.7h4.4c2.3,0,4.3-1.6,5.2-3.8V49
			c0.9-2.1,0.4-4.6-1.2-6.2l-3.2-3c-1.2-1.2-1.2-3.2,0-4.4l3.3-3.3c0.6-0.6,1.4-0.9,2.2-0.9c0.8,0,1.6,0.3,2.2,0.9l2.8,2.8
			c1.2,1.2,2.7,1.8,4.4,1.8c0.8,0,1.6-0.2,2.3-0.4l0,0h0.2c1.9-0.8,3.4-2.6,3.4-4.7v-4.8c0-1.7,0.9-2.8,2.7-2.8h4.7
			c1.7,0,2.7,1,2.7,2.8v4.4c0,2.3,1.6,4.3,3.8,5.2c0.7,0.3,1.5,0.4,2.3,0.4c1.5,0,3-0.6,4-1.6l3.1-3.1c0.6-0.6,1.4-0.9,2.2-0.9
			c0.8,0,1.6,0.3,2.2,0.9l3.3,3.3c1.2,1.2,1.2,3.2,0,4.4l-3.1,3.1c-1.6,1.6-2.1,4.3-1.2,6.4c0.9,2.1,2.9,3.7,5.2,3.7h4.4
			c1.7,0,2.8,0.9,2.8,2.7v4.7c0,1.7-1,2.7-2.8,2.7h-4.4c-2.3,0-4.3,1.6-5.2,3.7v0.1V67c-0.9,2.1-0.4,4.5,1.2,6.2l3.1,3.1
			c1.2,1.2,1.2,3.2,0,4.4L72.6,84c-0.6,0.6-1.4,0.9-2.2,0.9c-0.8,0-1.6-0.3-2.2-0.9l-3.1-3.1c-1.1-1.1-2.5-1.6-4-1.6
			c-0.7,0-1.4,0.1-2.1,0.4h-0.3c-2.1,0.9-3.7,2.9-3.7,5.2v4.4c0,1.7-0.9,2.8-2.7,2.8h-4.7c-1.7,0-2.7-1-2.7-2.8v-4.4
			c0-2.3-1.6-4.3-3.8-5.2c-0.7-0.3-1.5-0.4-2.3-0.4C37.5,79.2,35.9,79.8,34.9,80.9z"/>
	</g>
	<g class="st0">
		<path class="st1" d="M78.1,83c-0.8,0-1.6-0.3-2.2-0.9L64.3,70.5H37.5c-5.2,0-9.4-4.2-9.4-9.4V33c0-5.2,4.2-9.4,9.4-9.4h43.8
			c5.2,0,9.4,4.2,9.4,9.4v28.1c0,5.2-4.2,9.4-9.4,9.4h-0.8c-1.7,0-3.1-1.4-3.1-3.1s1.4-3.1,3.1-3.1h0.8c1.7,0,3.1-1.4,3.1-3.1V33
			c0-1.7-1.4-3.1-3.1-3.1H37.5c-1.7,0-3.1,1.4-3.1,3.1v28.1c0,1.7,1.4,3.1,3.1,3.1h28.1c0.8,0,1.6,0.3,2.2,0.9l12.5,12.5
			c1.2,1.2,1.2,3.2,0,4.4C79.7,82.7,78.9,83,78.1,83z M25,79.9c0-1.7-1.4-3.1-3.1-3.1h-3.1c-1.7,0-3.1-1.4-3.1-3.1V46.3
			c0-1.7,1.4-3.1,3.1-3.1h3.1c1.7,0,3.1-1.4,3.1-3.1S23.6,37,21.9,37h-3.1c-5.2,0-9.4,4.2-9.4,9.4v27.3c0,5.2,4.2,9.4,9.4,9.4h3.1
			C23.6,83,25,81.6,25,79.9z M27.2,94.6L38.8,83h23.7c1.7,0,3.1-1.4,3.1-3.1s-1.4-3.1-3.1-3.1h-25c-0.8,0-1.6,0.3-2.2,0.9L22.8,90.2
			c-1.2,1.2-1.2,3.2,0,4.4c0.6,0.6,1.4,0.9,2.2,0.9S26.6,95.2,27.2,94.6z"/>
	</g>
	<g class="st0">
		<path class="st1" d="M53.1,98.6c-1,0-2-0.5-2.9-1.7C50,96.6,50,96.3,50,96V72.7c0-0.4,0.2-0.8,0.5-1.1c2.7-2.4,5.8-0.6,5.8,2v3.9
			c0,0.8,1.1,1.1,1.5,0.3c6.8-15,16.8-36.8,22.5-49.2c0.3-0.7-0.4-1.3-1-1L28.9,50.3c-0.8,0.3-0.5,1.5,0.3,1.5H50
			c3.5,0,6.2,2.8,6.2,6.4v3.9c0,0.4-0.2,0.8-0.5,1.1c-2.7,2.4-5.8,0.6-5.8-2v-1.6c0-0.9-0.7-1.6-1.6-1.6H10.1
			c-0.3,0-0.6-0.1-0.8-0.2C6.9,56,7.6,53,9.7,52l76.5-34.4c1.9-0.9,4.3,0.3,4.5,3c0,0.2,0,0.4-0.1,0.6C79,46.5,56.5,95.5,56,96.7
			C55.5,97.9,54.3,98.6,53.1,98.6z"/>
	</g>
	<g class="st0">
		<path class="st1" d="M84.2,64.8c-5.9,5.9-18.3,15.9-35,15.9c-17.1,0-29.7-10.4-35.7-16.6c-1.2-1.2-1.2-3.2,0.1-4.4
			c1.2-1.2,3.2-1.2,4.4,0.1c5.3,5.5,16.4,14.7,31.2,14.7c14.5,0,25.4-8.8,30.6-14c1.2-1.2,3.2-1.2,4.4,0
			C85.5,61.6,85.5,63.6,84.2,64.8z M82.6,53.8c-1.2,0.6-2.6,0.4-3.6-0.6c-3.2-3.1-7.5-6.5-12.7-9.1c-0.5-0.3-1.1,0.3-0.9,0.8
			c0.7,1.9,1.1,3.9,1.1,6c0,10.7-9.8,19.1-20.9,16.8c-6.5-1.4-11.7-6.5-13.1-13c-0.7-3.5-0.4-6.8,0.7-9.8c0.2-0.6-0.4-1.1-0.9-0.8
			c-5.3,2.6-9.6,6.1-12.8,9.2c-0.6,0.6-1.4,0.9-2.2,0.9c-1.2,0-2.4-0.7-3-2.1c-0.5-1.2-0.1-2.5,0.8-3.3c7.1-6.9,18.8-15.1,34.2-15.1
			c15.3,0,27,8.1,34.1,14.9C84.8,50.1,84.6,52.7,82.6,53.8z M59.9,53c1-2.7-1.5-5.1-4.1-4.1c-0.8,0.3-1.4,0.9-1.7,1.7
			c-1,2.7,1.5,5.1,4.1,4.1C59,54.3,59.6,53.7,59.9,53z"/>
	</g>
	<g class="st0">
		<path class="st1" d="M75,73.6c-3.5,0-6.6,1.4-8.9,3.7L37.2,60.7c0.2-0.9,0.3-1.8,0.3-2.7c0-1.3-0.2-2.6-0.6-3.7l29-15.8
			c2.3,2.4,5.5,4,9.1,4c6.9,0,12.5-5.6,12.5-12.5S81.9,17.4,75,17.4S62.5,23,62.5,29.9c0,1.1,0.1,2.1,0.4,3.1L33.6,49
			c-2.2-2.1-5.3-3.5-8.6-3.5c-6.9,0-12.5,5.6-12.5,12.5S18.1,70.5,25,70.5c3.7,0,7.1-1.7,9.4-4.3L63,82.8c-0.3,1.1-0.5,2.2-0.5,3.3
			c0,6.9,5.6,12.5,12.5,12.5S87.5,93,87.5,86.1S81.9,73.6,75,73.6z M75,23.6c3.4,0,6.2,2.8,6.2,6.2S78.4,36,75,36
			c-2.4,0-4.4-1.3-5.5-3.3l0,0c-0.5-0.9-0.8-1.9-0.8-3C68.8,26.4,71.6,23.6,75,23.6z M25,64.2c-3.4,0-6.2-2.8-6.2-6.2
			s2.8-6.2,6.2-6.2s6.2,2.8,6.2,6.2S28.4,64.2,25,64.2z M75,92.4c-3.4,0-6.2-2.8-6.2-6.2S71.6,80,75,80s6.2,2.8,6.2,6.2
			S78.4,92.4,75,92.4z"/>
	</g>
	<g class="st0">
		<path class="st1" d="M36.9,33.9c-1.3-1.2-1.3-3.4,0-4.6l10.9-10.9c1.2-1.2,3.2-1.2,4.4,0l10.9,10.9c1.3,1.3,1.3,3.4,0,4.6
			c-0.6,0.5-1.3,0.8-2.1,0.8s-1.7-0.3-2.3-0.9L53,28v39.3c0,1.7-1.3,3.1-3,3.1s-3-1.4-3-3.1V28l-5.8,5.7c-0.6,0.6-1.4,0.9-2.2,0.9
			C38.2,34.7,37.4,34.4,36.9,33.9z M75,38H65c-1.6,0-3.1,1.1-3.2,2.7c-0.2,1.9,1.2,3.3,3,3.3h8.6c0.9,0,1.6,0.6,1.6,1.5v45.3
			c0,0.9-0.7,1.2-1.6,1.2H26.6c-0.9,0-1.6-0.3-1.6-1.2V45.5c0-0.9,0.7-1.5,1.6-1.5H35c1.6,0,3.1-1.1,3.2-2.7
			c0.2-1.9-1.3-3.3-3.1-3.3H25c-3.5,0-6,2.5-6,5.9v48.4c0,3.5,2.5,6.6,6,6.6h50c3.5,0,6-3.2,6-6.6V43.9C81,40.5,78.5,38,75,38z"/>
	</g>
	<g class="st0">
		<path class="st1" d="M50,48.6c-1.7,0-3-1.4-3-3.1v-25c0-1.7,1.3-3.1,3-3.1s3,1.4,3,3.1v25C53,47.2,51.7,48.6,50,48.6z M85.9,62.7
			c0-14.8-8.7-27.9-22.3-33.4c-1.6-0.6-3.4,0.1-4.1,1.7c-0.6,1.6,0.1,3.4,1.7,4.1c11.1,4.5,18.4,15.3,18.4,27.6
			c0,16.4-13.3,29.7-29.7,29.7S20.3,79.1,20.3,62.7c0-12.1,7.2-22.9,18.5-27.5c1.6-0.7,2.4-2.5,1.7-4.1c-0.7-1.6-2.5-2.4-4.1-1.7
			C22.8,35,14.1,48,14.1,62.7c0,19.8,16.1,35.9,35.9,35.9S85.9,82.5,85.9,62.7z"/>
	</g>
	<g class="st0">
		<path class="st1" d="M77.9,34.3l9.9-9.9c1.2-1.2,1.3-3,0.3-4.3c-1.2-1.4-3.3-1.5-4.6-0.2l-10,10L52.1,28c-1.8-0.2-3.7,0.5-5,1.8
			L12.8,64c-2.4,2.4-2.4,6.4,0,8.8L34.9,95c2.4,2.4,6.4,2.4,8.8,0L78,60.7c1.3-1.3,2-3.1,1.8-5L77.9,34.3z M59.2,48.6
			c1.2,1.2,1.2,3.2,0,4.4s-3.2,1.2-4.4,0s-1.2-3.2,0-4.4S58,47.4,59.2,48.6z M38.2,89.5L18.3,69.6c-0.6-0.6-0.6-1.6,0-2.2L51,34.7
			c0.3-0.3,0.8-0.5,1.2-0.5l12.2,1.1c1.3,0.1,1.9,1.7,1,2.7L61,42.3c-3.6-1.7-8.2-1-11,2.2c-3.2,3.5-3.1,9.1,0.1,12.6
			c3.6,3.9,9.8,4,13.5,0.3c2.9-2.9,3.5-7.2,1.8-10.7l4.4-4.4c0.9-0.9,2.5-0.4,2.7,1l1.1,12.2c0,0.5-0.1,0.9-0.5,1.2L40.4,89.5
			C39.8,90.1,38.8,90.1,38.2,89.5z M39.3,77.3c-1.2,1.2-3.2,1.2-4.4,0l-4.4-4.4c-1.2-1.2-1.2-3.2,0-4.4c1.2-1.2,3.2-1.2,4.4,0
			l4.4,4.4C40.5,74.1,40.5,76.1,39.3,77.3z M52.5,68.5c1.2,1.2,1.2,3.2,0,4.4s-3.2,1.2-4.4,0L34.9,59.6c-1.2-1.2-1.2-3.2,0-4.4
			s3.2-1.2,4.4,0L52.5,68.5z"/>
	</g>
	<g class="st0">
		<path class="st1" d="M50,92.1c-18.9,0-34.3-15.4-34.3-34.2S31.1,23.7,50,23.7s34.3,15.4,34.3,34.2c0,6.8-2,13.3-5.8,19
			c-0.9,1.4-2.8,1.8-4.2,0.8c-1.4-0.9-1.8-2.8-0.8-4.2c3.1-4.6,4.7-10,4.7-15.6c0-15.5-12.7-28.1-28.2-28.1S21.8,42.4,21.8,57.9
			S34.4,86.1,50,86.1c5.5,0,10.9-1.6,15.5-4.6c1.4-0.9,3.3-0.5,4.2,0.9c0.9,1.4,0.5,3.3-0.9,4.2C63.2,90.2,56.7,92.1,50,92.1z
			 M65.7,56.2L52.5,43c-0.7-0.7-1.7-1-2.6-0.9C49,42,48,42.3,47.3,43L34.1,56.2c-1.1,1.1-1.3,2.8-0.5,4c1.1,1.7,3.4,1.8,4.8,0.5
			l7.2-7.1c0.5-0.5,1.4-0.1,1.4,0.6V72c0,1.4,0.7,2.7,2,3.1c2.1,0.7,4-0.9,4-3V54.4c0-0.7,0.9-1,1.4-0.6l6.9,6.9
			c1.4,1.4,3.7,1.2,4.8-0.5C67,59,66.7,57.3,65.7,56.2z"/>
	</g>
	<g class="st0">
		<g class="st2">
			<path class="st3" d="M78.1,42.4H21.9c-3.5,0-6.2,2.8-6.2,6.2v43.8c0,3.5,2.8,6.2,6.2,6.2h56.2c3.5,0,6.2-2.8,6.2-6.2V48.6
				C84.4,45.2,81.6,42.4,78.1,42.4z M76.6,92.4H23.4c-0.9,0-1.6-0.7-1.6-1.6V50.2c0-0.9,0.7-1.6,1.6-1.6h3.1c0.9,0,1.6,0.7,1.6,1.6
				v32.7c0,1.6,1.2,3.1,2.8,3.2c1.9,0.2,3.4-1.3,3.4-3.1V50.2c0-0.9,0.7-1.6,1.6-1.6h40.6c0.9,0,1.6,0.7,1.6,1.6v40.6
				C78.1,91.7,77.4,92.4,76.6,92.4z"/>
			<path class="st3" d="M34.4,33c0-4.6,3.3-8.4,7.6-9.2c0.7-0.1,1.2,0.6,0.8,1.2c-1.4,2.3-2.2,5.1-2.2,8v3.1c0,1.7,1.4,3.1,3.1,3.1
				l0,0c1.7,0,3.1-1.4,3.1-3.1V33c0-2.1,0.7-4,1.9-5.6c0.6-0.8,1.9-0.8,2.5,0c1.2,1.6,1.9,3.5,1.9,5.6v3.1c0,1.7,1.4,3.1,3.1,3.1
				l0,0c1.7,0,3.1-1.4,3.1-3.1V33c0-2.9-0.8-5.7-2.2-8c0.5-0.8,0.3-0.4,0.8-1.2c4.3,0.8,7.6,4.6,7.6,9.2v3.1c0,1.7,1.4,3.1,3.1,3.1
				l0,0c1.7,0,3.1-1.4,3.1-3.1v-2.7c0-8.2-6.1-15.3-14.2-16c-2.7-0.3-5.4,0.2-7.7,1.2l0,0c-2.3-1-4.9-1.5-7.7-1.2
				c-8.1,0.7-14.2,7.8-14.2,16v2.7c0,1.7,1.4,3.1,3.1,3.1l0,0c1.7,0,3.1-1.4,3.1-3.1V33H34.4z"/>
		</g>
	</g>
	<g class="st0">
		<path class="st1" d="M71.9,51.8v40.6c0,3.5-2.8,6.2-6.2,6.2H33.8c-3.1,0-5.7-2.5-5.7-5.7V51.8c0-2.3,2.5-4,5-2.6
			c0.8,0.5,1.3,1.4,1.3,2.3v39.4c0,0.9,0.7,1.6,1.6,1.6h28.1c0.9,0,1.6-0.7,1.6-1.6V51.5c0-0.9,0.5-1.8,1.3-2.3
			C69.4,47.7,71.9,49.4,71.9,51.8z M56.2,79.9H43.8c-1.7,0-3.1,1.4-3.1,3.1s1.4,3.1,3.1,3.1h12.5c1.7,0,3.1-1.4,3.1-3.1
			S58,79.9,56.2,79.9z M56.2,67.4H43.8c-1.7,0-3.1,1.4-3.1,3.1s1.4,3.1,3.1,3.1h12.5c1.7,0,3.1-1.4,3.1-3.1S58,67.4,56.2,67.4z
			 M56.2,54.9H43.8c-1.7,0-3.1,1.4-3.1,3.1s1.4,3.1,3.1,3.1h12.5c1.7,0,3.1-1.4,3.1-3.1S58,54.9,56.2,54.9z M28.1,42.4
			c0-1.7,1.4-3.1,3.1-3.1c0-5.8,4-10.7,9.4-12.1v-3.5c0-5.2,4.2-9.4,9.4-9.4s9.4,4.2,9.4,9.4v3.5c5.4,1.4,9.4,6.3,9.4,12.1
			c1.7,0,3.1,1.4,3.1,3.1s-1.4,3.1-3.1,3.1H31.2C29.5,45.5,28.1,44.1,28.1,42.4z M37.5,39.2h25c0-3.4-2.8-6.2-6.2-6.3l0,0
			c-1.7,0-3.1-1.4-3.1-3.1v-6.2c0-1.8-1.6-3.3-3.4-3.1c-1.6,0.2-2.8,1.6-2.8,3.2v6.1c0,1.7-1.4,3.1-3.1,3.1l0,0
			C40.3,33,37.5,35.8,37.5,39.2z"/>
	</g>
	<g class="st0">
		<path class="st1" d="M50,92.1c-18.9,0-34.3-15.4-34.3-34.2S31.1,23.7,50,23.7s34.3,15.4,34.3,34.2c0,6.8-2,13.3-5.8,19
			c-0.9,1.4-2.8,1.8-4.2,0.8c-1.4-0.9-1.8-2.8-0.8-4.2c3.1-4.6,4.7-10,4.7-15.6c0-15.5-12.7-28.1-28.2-28.1S21.8,42.4,21.8,57.9
			S34.4,86.1,50,86.1c5.5,0,10.9-1.6,15.5-4.6c1.4-0.9,3.3-0.5,4.2,0.9c0.9,1.4,0.5,3.3-0.9,4.2C63.2,90.2,56.7,92.1,50,92.1z
			 M66.1,55.8c-1.1-1.7-3.4-1.8-4.8-0.5l-6.9,6.9c-0.5,0.5-1.4,0.1-1.4-0.6V43.9c0-2-1.8-3.6-4-3c-1.3,0.4-2,1.7-2,3.1v17.8
			c0,0.7-0.9,1-1.4,0.6l-7.1-7.1c-1.4-1.4-3.7-1.2-4.8,0.5c-0.9,1.3-0.6,3,0.5,4L47.3,73c0.7,0.7,1.7,1,2.6,0.9
			c0.9,0.1,1.9-0.2,2.6-0.9l13.2-13.2C66.7,58.7,67,57,66.1,55.8z"/>
	</g>
	<g class="st0">
		<path class="st1" d="M40.6,86.1c0,3.5-2.8,6.2-6.2,6.2s-6.2-2.8-6.2-6.2s2.8-6.2,6.2-6.2S40.6,82.7,40.6,86.1z M71.9,79.9
			c-3.5,0-6.2,2.8-6.2,6.2s2.8,6.2,6.2,6.2s6.2-2.8,6.2-6.2S75.3,79.9,71.9,79.9z M37.6,36c-1.6,0-3.3,1-3.3,3c0,2.1,1.3,3,3.1,3h44
			c1,0,1.8,1.1,1.5,2.1l-4.1,16.4c-0.1,0.6-0.6,1.1-1.2,1.2l-39.7,8c-0.8,0.2-1.6-0.3-1.8-1.1L24.9,29.1c-0.4-1.3-1.6-2.1-3-2.1
			h-9.2c-1.6,0-3.1,1.1-3.2,2.7c-0.2,1.9,1.3,3.3,3.1,3.3h5.8c0.7,0,1.3,0.5,1.5,1.1l10.7,37.8c0.9,3.2,4.1,5.1,7.3,4.4L80,67.7
			c2.4-0.5,4.3-2.3,4.8-4.6L90,41.9c0.7-3-1.5-5.9-4.6-5.9L37.6,36z"/>
	</g>
	<g class="st0">
		<path class="st1" d="M56.2,45.5c0,3.5-2.8,6.2-6.2,6.2s-6.2-2.8-6.2-6.2s2.8-6.2,6.2-6.2S56.2,42,56.2,45.5z M52.1,104.1
			c0.6-0.5,2.3-2,3.5-2.8L56,101c2.2-1.5,6.4-4.2,6.4-11.7l0,0c0-1.7-1.4-3.1-3.1-3.1l0,0c-1.7,0-3.1,1.4-3.1,3.1l0,0
			c0,4.1-1.7,5.2-3.6,6.5L52.2,96c-0.7,0.5-1.5,1.1-2.2,1.6c-0.7-0.6-1.5-1.1-2.2-1.6l-0.4-0.2c-2.2-1.4-3.7-2.3-3.7-6.5l0,0
			c0-1.7-1.4-3.1-3.1-3.1l0,0c-1.7,0-3.1,1.4-3.1,3.1l0,0c0,7.6,4,10.1,6.6,11.8l0.3,0.2c1.6,1,3.4,2.7,3.4,2.8l2.1,2L52.1,104.1z
			 M82,79.9c0,3-0.9,5.9-2.5,8.5c-0.5,0.8-1.4,1.3-2.4,1.4c-0.1,0-0.1,0-0.2,0c-0.9,0-1.8-0.4-2.4-1.1c-3.6-4.2-7.1-5.7-12.8-5.7
			c-0.2,0-0.4,0-0.6-0.1V83h-8v3.1c0,1.7-1.3,3.1-3,3.1s-3-1.4-3-3.1V83h-6.4c-5.7,0-9.2,1.5-12.8,5.7c-0.6,0.7-1.5,1.1-2.4,1.1
			c-0.1,0-0.1,0-0.2,0c-1-0.1-1.9-0.6-2.4-1.4c-1.6-2.5-2.5-5.5-2.5-8.5c0-7.3,5-13.4,11.8-15.1c-0.5-3-0.8-6.3-0.8-9.9
			c0-15.5,9.7-37.5,18.8-37.5c5.9,0,10.7,8.3,13,13.2c3.6,7.7,5.8,16.8,5.8,24.3c0,3.5-0.3,6.6-0.7,9.5C75.9,65.1,82,71.8,82,79.9z
			 M35.7,77.2c-0.6-1.3-1.2-2.9-1.8-4.7c-0.3-0.9-1.3-1.4-2.2-0.9c-3.1,1.5-5.2,4.7-5.2,8.4c0,0.4,0,0.9,0.1,1.3
			C29.3,79.1,32.3,77.8,35.7,77.2z M57.6,77c1.6-3,4.9-10.9,4.9-22c0-6.6-1.9-14.8-5.2-21.7c-3.4-7.3-6.6-9.7-7.3-9.7
			c-2.7,0-12.5,16.5-12.5,31.2c0,4.1,0.5,7.8,1.2,11c0.3,0.5,0.4,1,0.4,1.5c0,0.1,0,0.2,0,0.3c1.1,4.4,2.5,7.3,3.4,9.3H47v-9.6
			c0-1.7,1.3-3.1,3-3.1s3,1.4,3,3.1V77H57.6z M75.8,79.9c0-4.6-3.3-8.4-7.7-9.2c-0.8-0.1-1.6,0.3-1.8,1.1c-0.6,2-1.3,3.7-1.9,5.1
			c4.4,0.4,8,1.7,11.3,4.3C75.8,80.7,75.8,80.3,75.8,79.9z"/>
	</g>
	<g class="st0">
		<path class="st1" d="M50,17.4C27.6,17.4,9.4,35.6,9.4,58S27.6,98.6,50,98.6S90.6,80.4,90.6,58S72.4,17.4,50,17.4z M78.8,39.2
			c-0.6,0-1.3,0-1.9,0c-0.7,0-1.3,0-1.8,0c-1.6,0-2.6-0.3-3.1-0.5c0.1-3.2,0.6-4.7,1.5-5.9C75.4,34.7,77.2,36.9,78.8,39.2z M41,24.8
			l0.4,2c0.4-0.1,0.8,0,1.2,0.3c0.2,0.1,0.4,0.4,0.4,0.6c0,0.1,0,0.1,0,0.2c0,0.8,0,3,2.1,4.5c1.1,0.8,2.4,0.9,3.6,0.9
			c0.3,0,0.9,0.1,1.3,0.1c-0.1,1.9-0.6,2.7-1.3,3.7c-0.8,1.1-1.8,2.6-1.8,5.1c-0.9,0.1-2.5,0.1-3.1,0.1c-3.8,0-9.4,3.3-9.4,9.4
			c0,6.5,4.7,9.4,9.4,9.4c1.4,0,3.7,0.8,4.9,1.7c0.6,0.5,1.4,1,1.4,4.6c0,1.7,0,2.6-5.2,7c-3.5,3-6.7,7.7-9.1,11.7
			c-2.1-3.4-4.5-9.9-4.5-12.5c0-3.1,0.7-4.3,1.6-5.7c0.5-0.8,1-1.6,1.4-2.7c1.4-4.2,0-8.7-3.9-12.6c-0.7-0.7-1.5-1.4-2.2-2
			C25.9,48.8,25,48,25,45.5c0,0-0.6-5.8-0.8-8.6c-0.1-1.3,0.8-2.3,0.8-2.3S34,26.7,41,24.8z M15.8,58c0-5.1,1.2-9.9,3.2-14.3v1.8
			c0,5.5,2.9,8,5.3,10c0.6,0.5,1.2,1,1.7,1.6c2.2,2.2,3,4.3,2.3,6.2c-0.1,0.4-0.4,0.8-0.8,1.4c-1.1,1.7-2.5,4.1-2.5,9
			c0,1.7,1.1,6.2,2.9,10.6C20.5,78,15.8,68.5,15.8,58z M39.8,90.8c2.2-3.7,5.8-8.9,9.1-11.7c5.4-4.6,7.3-7.1,7.3-11.8
			c0-4.8-1.1-7.5-3.9-9.6c-2.2-1.7-5.9-2.9-8.6-2.9c-3.1,0-3.1-2.2-3.1-3.1c0-2.2,2.4-3.1,3.1-3.1c3.5,0,6-0.1,7.8-2
			c1.1-1.1,1.6-2.5,1.6-4.3c0-0.5,0.1-0.7,0.7-1.6c1-1.4,2.4-3.5,2.4-7.7c0-5.3-5.2-5.7-7.1-5.9V27c-0.2-1.2-0.6-2.3-1.3-3.3
			c0.7,0,1.4-0.1,2.2-0.1c6.8,0,13.1,2,18.4,5.4c-2.4,3.1-2.8,6.8-2.8,10.2c0,3.8,3.7,6.2,9.4,6.2c0.5,0,1.2,0,1.9,0
			c1.5,0,3.1,0,4.2,0h0.1c0.2,0,0.5,0,0.7-0.1c0.4,1,0.8,2.1,1.1,3.2c-6.7,0.1-20.6,0.8-20.6,12.5c0,7.4,4,9.8,6.4,11.2
			c0.4,0.3,0.8,0.5,1.2,0.7c0.6,0.4,1.5,2.3,1.8,10.2c0,0.5,0,0.9,0,1.3c-5.9,4.9-13.6,7.9-21.9,7.9C45.4,92.4,39.8,90.8,39.8,90.8z
			 M77.8,78.2c-0.4-4.4-1.4-8.3-4.1-10.2c-0.5-0.4-1.1-0.7-1.6-1c-2.1-1.2-3.3-2-3.3-5.8c0-3.2,1.9-6.2,15.5-6.2
			c0.1,1,0.1,2.1,0.1,3.1C84.4,65.5,81.9,72.5,77.8,78.2z"/>
	</g>
	<g class="st0">
		<path class="st1" d="M50,17.4C27.6,17.4,9.4,35.6,9.4,58S27.6,98.6,50,98.6S90.6,80.4,90.6,58S72.4,17.4,50,17.4z M84.4,58
			c0,1.1-0.1,2.1-0.1,3.1c-1.9,0-2.7-1-4.2-3.5s-3.5-5.8-8.2-5.8c-1.8,0-3.2,0.5-4.3,1.6c-1.8,1.8-1.7,4.3-1.7,6.5
			c0,1.3,0,2.5-0.2,3.7c-1.6,7-4.5,15.4-6.4,18.6l0,0c-0.3-0.9-0.5-1.8-0.7-2.7c-1.3-5-2.9-10.6-7.7-12c-2-0.5-4-1.7-4-6.3
			c0-5.1,1.7-6.2,9.4-6.2h1.6c4.3,0,7.8-3.7,7.8-8s-3.5-8-7.8-8h-1.6c-1.6,0-2.6-0.2-3.1-0.4c0-1,0-1.8,0.1-2.3
			c0.2-0.1,0.5-0.2,1.1-0.4l0.2-0.1c0.3-0.1,6.5-3.3,7.8-9.9C75.2,30.8,84.4,43.4,84.4,58z M26.8,32.7c0.5,0.3,0.9,0.5,1.2,0.6
			c0,0,0.1,0,0.1,0.1c-0.1,2-0.6,2.8-1.3,3.8C26,38.3,25,39.8,25,42.3c-0.9,0.1-2.5,0.1-3.1,0.1c-0.9,0-1.8,0.2-2.7,0.5
			C21,39,23.6,35.6,26.8,32.7z M20.9,76.3c-3.2-5-5.1-11-5.3-17.3c1.7,1.4,4,2.1,6.2,2.1c1.4,0,3.7,0.8,4.9,1.7
			c0.6,0.5,1.4,1,1.4,4.6c0,1.7,0,2.6-5.2,7C22.3,74.9,21.6,75.6,20.9,76.3z M50,92.4c-9.9,0-18.9-4.2-25.2-11
			c0.8-0.9,1.5-1.6,2.2-2.2c5.4-4.6,7.3-7.1,7.3-11.8c0-4.8-1.1-7.5-3.9-9.6c-2.2-1.7-5.9-2.9-8.6-2.9c-3.1,0-3.1-2.2-3.1-3.1
			c0-2.2,2.4-3.1,3.1-3.1c3.5,0,6-0.1,7.8-2c1.1-1.1,1.6-2.5,1.6-4.3c0-0.5,0.1-0.7,0.7-1.6c1-1.4,2.4-3.5,2.4-7.7
			c0-2.3-1-3.6-2.1-4.4c5.2-3.1,11.2-4.9,17.7-4.9c2.1,0,4.2,0.2,6.2,0.6c-0.3,3.6-3.8,5.6-4.4,6c-4.6,1.8-4.9,4-4.9,9.3
			c0,3.8,3.7,6.5,9.4,6.5h1.6c0.9,0,1.6,0.6,1.6,1.5S58.7,49,57.8,49h-1.6c-5.5,0-15.6-0.2-15.6,12.3c0,3.7,1.1,10.2,8.5,12.3
			c1.4,0.4,2.5,4.7,3.3,7.5c0.3,0.9,0.5,1.9,0.8,2.8c1.4,4.8,4.8,5.4,6.1,5.4c3.1,0,5.4-2.9,8.2-10.3c1.8-4.8,3.5-10.5,4.2-14
			c0.4-1.9,0.4-3.7,0.4-5.1c0-0.5,0-1.3,0-1.8c0.8,0.1,1.3,0.7,2.5,2.8c1.4,2.4,3.6,6,8.4,6.5C79,81.7,65.7,92.4,50,92.4z"/>
	</g>
	<g class="st0">
		<path class="st1" d="M90.6,42.4c0-2.4-1.1-3.8-2-4.6c-2-1.8-5.3-2.3-10.9-1.6C76,36.4,74.8,38,75,39.7c0.2,1.7,1.8,2.9,3.5,2.7
			c3.8-0.5,5.6-0.5,5.8,0c-0.4,1.1-3.3,3.6-7.7,6.5c-3.8-11-14.3-19-26.6-19c-14.1,0-25.8,10.4-27.8,24C22,54,21.9,54,21.7,54.1
			C11.2,60.3,6.8,65.5,8.5,70c1.1,3.1,4.6,4.6,10.6,4.6c1.9,0,4-0.1,6.3-0.4c0.5-0.1,1-0.1,1.5-0.2C32,81.3,40.4,86.2,50,86.2
			c15.5,0,28.1-12.6,28.1-28.1c0-0.9,0-1.8-0.1-2.6C85.5,50.7,90.6,46,90.6,42.4z M29.6,50.6c0.5-1.2,1.6-2,2.9-2h23.6
			c1.6,0,3.1-1.2,3.2-2.8c0.2-1.9-1.3-3.4-3.1-3.4H36.8c-0.7,0-1.1-0.9-0.5-1.4c3.8-3,8.5-4.9,13.7-4.9c10.1,0,18.5,6.8,21.1,16.1
			c-1.6,0.9-3.3,1.8-5.1,2.7H34.5c-1.6,0-3.1,1.2-3.2,2.8c-0.2,1.9,1.3,3.4,3.1,3.4h16.8c-8.2,3-15.3,4.9-21.1,6
			c-1.3-2.8-2-5.8-2-9.1C28.1,55.4,28.7,52.9,29.6,50.6z M14.5,67.8c0.4-1,2.3-3.2,7.5-6.6c0.3,2.4,0.8,4.7,1.7,6.8
			C18.9,68.6,15.7,68.4,14.5,67.8z M50,79.9c-2.9,0-5.7-0.6-8.2-1.6c-0.8-0.3-0.6-1.5,0.3-1.5h14.1c1.6,0,3.1-1.2,3.2-2.8
			c0.2-1.9-1.3-3.4-3.1-3.4H42.5c3.8-1.1,7.7-2.3,11.6-3.8c4.5-1.6,9-3.5,13.3-5.6h3.3c0.5,0,0.9,0.4,0.8,0.9
			C69.6,72.2,60.7,79.9,50,79.9z"/>
	</g>
	<g class="st0">
		<path class="st1" d="M46.9,76.8V62.7c0-0.9-0.7-1.6-1.6-1.6H31.2c-1.8,0-3.3-1.6-3.1-3.4c0.2-1.6,1.6-2.8,3.2-2.8h13.9
			c0.9,0,1.6-0.7,1.6-1.6V39.2c0-1.8,1.6-3.3,3.4-3.1c1.6,0.2,2.8,1.6,2.8,3.2v13.9c0,0.9,0.7,1.6,1.6,1.6h14.1
			c1.8,0,3.3,1.6,3.1,3.4c-0.2,1.6-1.6,2.8-3.2,2.8H54.7c-0.9,0-1.6,0.7-1.6,1.6v13.9c0,1.6-1.2,3.1-2.8,3.2
			C48.4,80,46.9,78.6,46.9,76.8z M50,17.4C27.6,17.4,9.4,35.6,9.4,58S27.6,98.6,50,98.6c10.2,0,20-3.8,27.6-10.8
			c1.3-1.2,1.3-3.1,0.2-4.4c-1.2-1.3-3.1-1.3-4.4-0.2c-6.4,5.9-14.7,9.2-23.3,9.2C31,92.4,15.6,77,15.6,58S31,23.6,50,23.6
			S84.4,39,84.4,58c0,5.7-1.4,11.4-4.2,16.4c-0.8,1.5-0.3,3.4,1.2,4.2c1.5,0.8,3.4,0.3,4.2-1.2c3.2-5.9,4.9-12.6,4.9-19.4
			C90.6,35.6,72.4,17.4,50,17.4z"/>
	</g>
	<g class="st0">
		<path class="st1" d="M81.1,54.9h-51c-1.4,0-2.1-1.7-1.1-2.7l7.6-7.6c1.2-1.2,1.2-3.2,0-4.4s-3.2-1.2-4.4,0L16.5,55.8
			c-1.2,1.2-1.2,3.2,0,4.4L32,75.7c0.6,0.6,1.4,0.9,2.2,0.9s1.6-0.3,2.2-0.9c1.2-1.2,1.2-3.2,0-4.4L29,63.8c-1-1-0.3-2.7,1.1-2.7
			h51.2c1.8,0,3.3-1.6,3.1-3.4C84.2,56.1,82.7,54.9,81.1,54.9z"/>
	</g>
	<g class="st0">
		<g class="st2">
			<path class="st3" d="M50,20.5c-20.7,0-37.5,16.8-37.5,37.5S29.3,95.5,50,95.5S87.5,78.7,87.5,58S70.7,20.5,50,20.5z M54.5,27.1
				c1,0.1,1.6,1.2,1.2,2.1c-1,2.2-3.2,3.8-5.7,3.8s-4.8-1.6-5.7-3.8c-0.4-0.9,0.2-2,1.2-2.1c1.5-0.2,3-0.3,4.5-0.3
				S53,26.9,54.5,27.1z M37.8,86.8c-3.1-1.3-5.9-3.1-8.4-5.3c-0.6-0.5-0.7-1.4-0.2-2c1.5-2.2,4.4-3.3,7.2-2.4c1.5,0.5,2.7,1.6,3.5,3
				c1,2,0.9,4.3-0.1,6C39.4,86.8,38.6,87.1,37.8,86.8z M50,89.2c-0.8,0-1.7,0-2.5-0.1c-1-0.1-1.7-1.1-1.3-2.1
				c0.5-1.3,0.7-2.7,0.7-4.1c0-6.9-5.6-12.5-12.5-12.5c-3.4,0-6.5,1.4-8.8,3.7c-0.7,0.7-1.9,0.6-2.5-0.3c-2.8-4.7-4.3-10.1-4.3-15.9
				c0-12.2,7-22.8,17.3-28c0.8-0.4,1.9,0,2.2,0.9c1.7,4.8,6.4,8.3,11.8,8.3s10.1-3.5,11.8-8.3c0.3-0.9,1.3-1.3,2.2-0.9
				c10.2,5.1,17.3,15.7,17.3,28C81.2,75.2,67.2,89.2,50,89.2z"/>
			<path class="st3" d="M62.5,48.6c-6.9,0-12.5,5.6-12.5,12.5s5.6,12.5,12.5,12.5S75,68,75,61.1S69.4,48.6,62.5,48.6z M62.5,67.4
				c-3.4,0-6.2-2.8-6.2-6.2c0-3.4,2.8-6.2,6.2-6.2s6.2,2.8,6.2,6.2C68.7,64.6,65.9,67.4,62.5,67.4z"/>
			<path class="st3" d="M36,43.6c-1.5-0.9-3.4-0.4-4.3,1.1c-0.9,1.5-0.4,3.4,1.1,4.3c1,0.6,1.6,1.6,1.6,2.7c0,1.7-1.4,3.1-3.1,3.1
				c-0.6,0-1.1-0.1-1.6-0.4c-1.5-0.9-3.4-0.3-4.3,1.2s-0.3,3.4,1.2,4.3c1.4,0.8,3,1.2,4.7,1.2c5.2,0,9.4-4.2,9.4-9.4
				C40.6,48.4,38.8,45.3,36,43.6z"/>
		</g>
	</g>
	<g class="st0">
		<path class="st1" d="M68.6,61H54.7h-9.4H31.2c-1.8,0-3.3-1.4-3.1-3.3c0.2-1.6,1.6-2.7,3.2-2.7h13.9h9.4h14.1
			c1.8,0,3.3,1.4,3.1,3.3C71.7,59.9,70.2,61,68.6,61z M50,17.4C27.6,17.4,9.4,35.6,9.4,58S27.6,98.6,50,98.6
			c10.2,0,20-3.8,27.6-10.8c1.3-1.2,1.3-3.1,0.2-4.4c-1.2-1.3-3.1-1.3-4.4-0.2c-6.4,5.9-14.7,9.2-23.3,9.2C31,92.4,15.6,77,15.6,58
			S31,23.6,50,23.6S84.4,39,84.4,58c0,5.7-1.4,11.4-4.2,16.4c-0.8,1.5-0.3,3.4,1.2,4.2c1.5,0.8,3.4,0.3,4.2-1.2
			c3.2-5.9,4.9-12.6,4.9-19.4C90.6,35.6,72.4,17.4,50,17.4z"/>
	</g>
	<g class="st0">
		<path class="st1" d="M71,43.3c1.2,1.2,1.2,3.2,0,4.4l-25,25c-0.6,0.6-1.4,0.9-2.2,0.9s-1.6-0.3-2.2-0.9L29,60.2
			c-1.2-1.2-1.2-3.2,0-4.4s3.2-1.2,4.4,0l10.3,10.3l22.8-22.8C67.8,42.1,69.7,42.1,71,43.3z M50,17.4C27.6,17.4,9.4,35.6,9.4,58
			S27.6,98.6,50,98.6c10.2,0,20-3.8,27.6-10.8c1.3-1.2,1.3-3.1,0.2-4.4c-1.2-1.3-3.1-1.3-4.4-0.2c-6.4,5.9-14.7,9.2-23.3,9.2
			C31,92.4,15.6,77,15.6,58S31,23.6,50,23.6S84.4,39,84.4,58c0,5.7-1.4,11.4-4.2,16.4c-0.8,1.5-0.3,3.4,1.2,4.2
			c1.5,0.8,3.4,0.3,4.2-1.2c3.2-5.9,4.9-12.6,4.9-19.4C90.6,35.6,72.4,17.4,50,17.4z"/>
	</g>
	<g class="st0">
		<path class="st1" d="M50,80v19 M53,98.6V79.9c0-1.7-1.3-3.1-3-3.1s-3,1.4-3,3.1v18.8c0,1.7,1.3,3.1,3,3.1S53,100.4,53,98.6z
			 M75,67.6c0-0.8-0.6-1.7-1.1-2.3L62,50.7V37.2l12.1-14.8c0.8-0.9,1-2.4,0.5-3.5c-0.5-1.1-1.5-2-2.7-2H28.1c-1.2,0-2.3,0.9-2.8,2
			s-0.6,2.5,0.1,3.4L37,37.2v13.4L25.4,65.4c-0.8,0.9-0.8,2.5-0.3,3.6s1.7,2,2.9,2h43.8l0,0C73.6,71,75,69.4,75,67.6z M43.2,53.6
			c0.4-0.6,0.8-1.1,0.8-1.8V36.1c0-0.7-0.4-1.2-0.8-1.8L34.6,24h30.7l-8.6,10.4c-0.4,0.6-0.8,1.1-0.8,1.8v15.6
			c0,0.7,0.4,1.3,0.8,1.8L65.4,64H34.6L43.2,53.6z"/>
	</g>
	<g class="st0">
		<path class="st1" d="M61,73.5l-11-11l-11,11c-1.3,1.3-3.4,1.2-4.6-0.2c-1-1.3-0.9-3.1,0.3-4.3l11-11l-11-11
			c-1.3-1.3-1.2-3.4,0.2-4.6c1.3-1,3.1-0.9,4.3,0.3l11,11l11-11c1.3-1.3,3.4-1.2,4.6,0.2c1,1.3,0.9,3.1-0.3,4.3l-11,11l11,11
			c1.2,1.2,1.3,3,0.3,4.3C64.5,74.7,62.3,74.8,61,73.5z M50,17.4C27.6,17.4,9.4,35.6,9.4,58S27.6,98.6,50,98.6
			c10.2,0,20-3.8,27.6-10.8c1.3-1.2,1.3-3.1,0.2-4.4c-1.2-1.3-3.1-1.3-4.4-0.2c-6.4,5.9-14.7,9.2-23.3,9.2C31,92.4,15.6,77,15.6,58
			S31,23.6,50,23.6S84.4,39,84.4,58c0,5.7-1.4,11.4-4.2,16.4c-0.8,1.5-0.3,3.4,1.2,4.2c1.5,0.8,3.4,0.3,4.2-1.2
			c3.2-5.9,4.9-12.6,4.9-19.4C90.6,35.6,72.4,17.4,50,17.4z"/>
	</g>
	<g class="st0">
		<path class="st1" d="M78.1,98.6H21.9c-1.7,0-3.1-1.4-3.1-3.1v-75c0-1.7,1.4-3.1,3.1-3.1h34.9c2.5,0,4.9,1,6.6,2.7L80.3,37
			c0.9,0.9,1.2,2.2,0.7,3.4s-1.6,1.9-2.9,1.9H59.4c-1.7,0-3.1-1.4-3.1-3.1V23.6H25v68.8h50V48.6c0-1.7,1.4-3.1,3.1-3.1
			s3.1,1.4,3.1,3.1v46.9C81.2,97.2,79.9,98.6,78.1,98.6z M62.5,36.1h8.1L62.5,28V36.1z"/>
	</g>
	<g class="st0">
		<path class="st1" d="M81.2,27H65.6c0-5-4.2-10-9.4-10H43.8c-5.2,0-9.4,5-9.4,10H18.8c-1.7,0-3.1,1.3-3.1,3s1.4,3,3.1,3h62.5
			c1.7,0,3.1-1.3,3.1-3S83,27,81.2,27z M43.6,27c-1.9,0-2.2-2.8-0.3-3c0.1,0,0.3,0,0.4,0h12.5c0.1,0,0.3-0.1,0.4,0
			c1.9,0.2,1.6,3-0.3,3H43.6z M81.2,39.4l-3.1,56.4C78,97.5,76.7,99,75,99H25c-1.7,0-3-1.5-3.1-3.1l-3.1-56.3
			c-0.1-1.7,1.2-3.2,2.9-3.3c1.7-0.1,3.2,1,3.3,2.7l3,53h44l3-53.1c0.1-1.7,1.6-2.9,3.3-2.9C80,36.1,81.3,37.7,81.2,39.4z M50,86.1
			c-1.7,0-3-1.4-3-3.1V45.5c0-1.7,1.3-3.1,3-3.1s3,1.4,3,3.1V83C53,84.7,51.7,86.1,50,86.1z M37.5,86.1c-1.7,0-3.5-1.4-3.5-3.1V48.6
			c0-1.7,1.8-3.1,3.5-3.1s3.5,1.4,3.5,3.1V83C41,84.7,39.2,86.1,37.5,86.1z M62.5,86.1c-1.7,0-3.5-1.4-3.5-3.1V48.6
			c0-1.7,1.8-3.1,3.5-3.1c1.7,0,3.5,1.4,3.5,3.1V83C66,84.7,64.2,86.1,62.5,86.1z"/>
	</g>
	<g class="st0">
		<path class="st1" d="M34,59.4L34,59.4c-0.3,0.3-0.5,0.6-0.6,0.9l-6.7,18.5c-0.2,0.6,0.4,1.2,1,1l18.5-6.7c0.4-0.2,0.7-0.4,0.9-0.6
			l0,0l37.4-37.4l-13-13L34,59.4z M71.3,30.9l4.2,4.2L43.4,67.2l-4.6,0.4l0.4-4.6L71.3,30.9z M81.2,92H18.8c-1.7,0-3.1-1.3-3.1-3
			s1.4-3,3.1-3h62.5c1.7,0,3.1,1.3,3.1,3S83,92,81.2,92z"/>
	</g>
	<g class="st0">
		<path class="st1" d="M75,56.4c-1.7,0-3,1.4-3,3.1V86H28V30h39.5L43.1,54.3l0,0c-0.3,0.3-0.5,0.6-0.6,0.9l-6.7,18.4
			c-0.2,0.6,0.4,1.2,1,1l18.5-6.7c0.4-0.2,0.7-0.4,0.9-0.6l0,0l37.4-37.4l-13-13l-7.1,7.3C72.9,24,72.4,24,71.9,24H25
			c-1.7,0-3,1-3,2.8v62.5c0,1.7,1.3,2.8,3,2.8h50c1.7,0,3-1,3-2.8V59.6C78,57.8,76.7,56.4,75,56.4z M84.6,29.9L52.5,62L48,62.4
			l0.4-4.6l32.1-32.1L84.6,29.9z"/>
	</g>
	<g class="st0">
		<path class="st1" d="M75,39.4l-3.1,56.4c-0.1,1.7-1.5,3.1-3.1,3.1H31.2c-1.7,0-3-1.5-3.1-3.1L25,39.5c-0.1-1.7,1.2-3.2,2.9-3.3
			c1.7-0.1,3.2,1,3.3,2.7l3,53.1h31.6l3-53.1c0.1-1.7,1.6-3,3.3-2.9C73.8,36.1,75.1,37.7,75,39.4z M47,83V45.5c0-1.7-1.3-3.1-3-3.1
			s-3,1.4-3,3.1V83c0,1.7,1.3,3.1,3,3.1S47,84.7,47,83z M59,83V45.5c0-1.7-1.3-3.1-3-3.1s-3,1.4-3,3.1V83c0,1.7,1.3,3.1,3,3.1
			S59,84.7,59,83z M81.2,30c0,1.7-1.4,3-3.1,3H21.9c-1.7,0-3.1-1.3-3.1-3s1.4-3,3.1-3h12.5c0-5,4.2-10,9.4-10h12.5
			c5.2,0,9.4,5,9.4,10h12.5C79.9,27,81.2,28.3,81.2,30z M60,25.5c0-0.8-0.7-1.5-1.5-1.5h-16c-0.8,0-1.5,0.7-1.5,1.5l0,0
			c0,0.8,0.7,1.5,1.5,1.5h16C59.3,27,60,26.3,60,25.5L60,25.5z"/>
	</g>
	<g class="st0">
		<g class="st2">
			<path class="st3" d="M84.4,29.9H46.9c-1.7,0-3.1,1.4-3.1,3.1v6.2H15.6c-1.7,0-3.1,1.4-3.1,3.1v9.4c0,1.7,1.4,3.1,3.1,3.1H25v25
				h-6.2V64.4c0-1.6-1.2-3.1-2.8-3.2c-1.9-0.2-3.4,1.3-3.4,3.1V83c0,1.7,1.4,3.1,3.1,3.1h68.6c1.6,0,3.1-1.2,3.2-2.8
				c0.2-1.9-1.3-3.4-3.1-3.4H70.8c-0.7,0-1-0.8-0.5-1.3c2.9-2.8,4.7-6.8,4.7-11.2s-1.8-8.3-4.7-11.2c-0.5-0.5-0.1-1.3,0.5-1.3h8.9
				c0.9,0,1.6,0.7,1.6,1.6v13.9c0,1.6,1.2,3.1,2.8,3.2c1.9,0.2,3.4-1.3,3.4-3.1V51.8V33C87.5,31.3,86.1,29.9,84.4,29.9z M18.8,48.6
				v-3.1h28.1c1.7,0,3.1-1.4,3.1-3.1v-6.2h31.2v12.5H18.8V48.6z M59.4,76.8c-5.2,0-9.4-4.2-9.4-9.4s4.2-9.4,9.4-9.4s9.4,4.2,9.4,9.4
				S64.5,76.8,59.4,76.8z M43.8,67.4c0,4.4,1.8,8.3,4.7,11.2c0.5,0.5,0.1,1.3-0.5,1.3H32.8c-0.9,0-1.6-0.7-1.6-1.6V56.4
				c0-0.9,0.7-1.6,1.6-1.6h15.1c0.7,0,1,0.8,0.5,1.3C45.6,59,43.8,63,43.8,67.4z"/>
			<path class="st3" d="M71.9,39H59.4c-1.7,0-3.1,1.8-3.1,3.5s1.4,3.5,3.1,3.5h12.5c1.7,0,3.1-1.8,3.1-3.5S73.6,39,71.9,39z"/>
			<path class="st3" d="M21.9,36h12.5c1.7,0,3.1-1.3,3.1-3c0-1.7-1.4-3-3.1-3H21.9c-1.7,0-3.1,1.3-3.1,3C18.8,34.7,20.1,36,21.9,36z
				"/>
		</g>
	</g>
	<g class="st0">
		<path class="st1" d="M69.2,25.4L67,27.6l-2.2,2.2l-42,42c-0.6,0.6-0.6,0.6-0.7,1l-6.8,18.5c-0.2,0.6,0.4,1.2,1,1l18.5-6.8
			c0.4-0.2,0.6,0,1.1-0.6L36,85l35.4-35.4c1.2-1.2,1.2-3.2,0-4.4s-3.2-1.2-4.4,0l-2.2,2.2l-1.7,1.7L32.3,80l-5.1,0.7l0.7-5.1
			l30.8-30.8l1.7-1.7l8.8-8.8l6.6,6.6c1.2,1.2,3.2,1.2,4.4,0l2.2-2.2c3.7-3.7,3.7-9.6,0-13.3C78.8,21.8,72.8,21.8,69.2,25.4z
			 M78,34.3l-4.4-4.4c1.2-1.2,3.2-1.2,4.4,0C79.2,31.1,79.2,33,78,34.3z"/>
	</g>
	<g class="st0">
		<path class="st1" d="M50,98.6C27.6,98.6,9.4,80.4,9.4,58S27.6,17.4,50,17.4S90.6,35.6,90.6,58S72.4,98.6,50,98.6z M50,23.6
			C31,23.6,15.6,39,15.6,58S31,92.4,50,92.4S84.4,77,84.4,58S69,23.6,50,23.6z M67.8,75.8c1.2-1.2,1.2-3.2-0.1-4.4L53,56.7V39.2
			c0-1.7-1.3-3.1-3-3.1s-3,1.4-3,3.1V58c0,0.8,0.3,1.6,0.9,2.2l15.6,15.6c0.6,0.6,1.4,0.9,2.2,0.9S67.2,76.4,67.8,75.8z"/>
	</g>
	<g class="st0">
		<path class="st1" d="M84.4,92H15.6c-1.7,0-3.6-1-3.6-2.8v-50c0-1.7,1.9-3.2,3.6-3.2h12.5c1.7,0,2.9,1.5,2.9,3.2v37.5
			c0,1.7-1.3,3.1-3,3.1s-3-1.4-3-3.1V42h-6v44h62V42H65.6c-1.7,0-3.6-1-3.6-2.8V30H50v9.2c0,1.7-1.4,2.8-3.1,2.8h-6.2
			c-1.7,0-3.1-1.3-3.1-3s1.4-3,3.1-3H44v-9.2c0-1.7,1.1-2.8,2.9-2.8h18.8c1.7,0,3.4,1,3.4,2.8V36h15.4c1.7,0,2.6,1.5,2.6,3.2v50
			C87,91,86.1,92,84.4,92z M28.1,30c0-1.7-1.4-3-3.1-3h-6.2c-1.7,0-3.1,1.3-3.1,3s1.4,3,3.1,3H25C26.7,33,28.1,31.7,28.1,30z
			 M87.5,30c0-1.7-1.4-3-3.1-3h-6.2c-1.7,0-3.1,1.3-3.1,3s1.4,3,3.1,3h6.2C86.1,33,87.5,31.7,87.5,30z M75,64.2
			c0-10.3-8.4-18.8-18.8-18.8s-18.8,8.4-18.8,18.8S45.9,83,56.2,83S75,74.6,75,64.2z M68.8,64.2c0,6.9-5.6,12.5-12.5,12.5
			s-12.5-5.6-12.5-12.5s5.6-12.5,12.5-12.5S68.8,57.4,68.8,64.2z"/>
	</g>
	<g>
		<path class="st3" d="M81.2,27H75v6h6v6H19v-6h6v-6h-6.2c-3.4,0-6.8,2.6-6.8,6v56.2c0,3.4,3.3,6.8,6.8,6.8h62.5
			c3.4,0,5.8-3.3,5.8-6.8V33C87,29.6,84.7,27,81.2,27z M81,89H19V46h62V89z M34,36h-6V17h6v10h13V17h6v10h13V17h6v19h-6v-3H53v3h-6
			v-3H34V36z M37,64H25V52h12V64z M56,64H44V52h12V64z M75,64H62V52h13V64z M37,83H25V71h12V83z M56,83H44V71h12V83z M75,83H62V71
			h13V83z"/>
	</g>
	<g class="st0">
		<path class="st1" d="M88.1,41.8c3.6-3,5.6-7.4,5.6-11.9c0-8.6-7-15.6-15.6-15.6c-4.6,0-8.9,2.1-11.9,5.6c-1.1,1.3-0.9,3.3,0.4,4.4
			s3.3,0.9,4.4-0.4c1.8-2.2,4.4-3.4,7.2-3.4c5.2,0,9.4,4.2,9.4,9.4c0,2.7-1.2,5.3-3.4,7.2c-1.3,1.1-1.5,3.1-0.4,4.4
			c0.6,0.7,1.5,1.1,2.4,1.1C86.8,42.5,87.5,42.3,88.1,41.8z M15.9,41.3c1.1-1.3,1-3.3-0.3-4.4c-2.1-1.8-3.3-4.3-3.3-7
			c0-5.2,4.2-9.4,9.4-9.4c2.7,0,5.3,1.2,7.2,3.4c1.1,1.3,3.1,1.5,4.4,0.4c1.3-1.1,1.5-3.1,0.4-4.4c-3-3.6-7.4-5.6-11.9-5.6
			c-8.6,0-15.6,7-15.6,15.6c0,4.5,2,8.8,5.4,11.7c0.6,0.5,1.3,0.8,2,0.8C14.4,42.4,15.3,42,15.9,41.3z M81.2,58
			c0-17.2-14-31.2-31.2-31.2S18.8,40.8,18.8,58s14,31.2,31.2,31.2S81.2,75.2,81.2,58z M75,58c0,13.8-11.2,25-25,25S25,71.8,25,58
			s11.2-25,25-25S75,44.2,75,58z M53,58V45.5c0-1.7-1.3-3.1-3-3.1s-3,1.4-3,3.1V55h-3.2c-1.7,0-3.1,1.3-3.1,3s1.4,3,3.1,3H50
			C51.7,61,53,59.7,53,58z M21.4,100.4l6.2-9.4c1-1.4,0.6-3.4-0.9-4.3c-1.4-1-3.4-0.6-4.3,0.9L16.2,97c-1,1.4-0.6,3.4,0.9,4.3
			c0.5,0.4,1.1,0.5,1.7,0.5C19.8,101.8,20.7,101.3,21.4,100.4z M83,101.2c1.4-1,1.8-2.9,0.9-4.3l-6.2-9.4c-1-1.4-2.9-1.8-4.3-0.9
			c-1.4,1-1.8,2.9-0.9,4.3l6.2,9.4c0.6,0.9,1.6,1.4,2.6,1.4C81.8,101.8,82.5,101.6,83,101.2z"/>
	</g>
	<g class="st0">
		<path class="st1" d="M81.2,92.4H18.8c-3.4,0-6.2-2.8-6.2-6.2V42.4c0-3.4,2.8-6.2,6.2-6.2h9.4c1.7,0,3.1-1.4,3.1-3.1
			c0-5.2,4.2-9.4,9.4-9.4h18.8c5.2,0,9.4,4.2,9.4,9.4c0,1.7,1.4,3.1,3.1,3.1h9.4c3.4,0,6.2,2.8,6.2,6.2v43.8
			C87.5,89.6,84.7,92.4,81.2,92.4z M18.8,42.4v43.8h62.5V42.4h-9.4c-5.2,0-9.4-4.2-9.4-9.4c0-1.7-1.4-3.1-3.1-3.1H40.6
			c-1.7,0-3.1,1.4-3.1,3.1c0,5.2-4.2,9.4-9.4,9.4C28.1,42.4,18.8,42.4,18.8,42.4z M57,78.5c1.6-0.6,2.4-2.5,1.7-4.1
			s-2.5-2.4-4.1-1.7c-1.5,0.6-3.1,0.9-4.6,0.9c-6.9,0-12.5-5.6-12.5-12.5S43.1,48.6,50,48.6s12.5,5.6,12.5,12.5
			c0,1.6-0.3,3.1-0.9,4.6c-0.6,1.6,0.1,3.4,1.7,4.1c1.6,0.6,3.4-0.1,4.1-1.7c0.9-2.3,1.4-4.6,1.4-7c0-10.3-8.4-18.8-18.8-18.8
			s-18.8,8.4-18.8,18.8S39.7,79.9,50,79.9C52.4,79.9,54.7,79.4,57,78.5z"/>
	</g>
	<g class="st0">
		<path class="st1" d="M71,23.7l-2,2c-11.7-6.9-26.4-6.9-38.1,0l-1.9-2c-1.8-1.8-4.8-1.8-6.6,0l-6.6,6.6c-1.8,1.8-1.8,4.8,0,6.6
			l1.9,1.9c-6.9,11.7-6.9,26.4,0,38.1l-2,2.1c-1.8,1.8-1.8,4.8,0,6.6l6.6,6.6c1.8,1.8,4.8,1.8,6.6,0l1.9-1.9
			c11.7,6.9,26.4,6.9,38.1,0l1.9,1.9c1.8,1.8,4.8,1.8,6.6,0l6.6-6.6c1.8-1.8,1.8-4.8,0-6.6l-1.7-2c6.9-11.7,6.9-26.4,0-38.1l1.9-1.9
			c1.8-1.8,1.8-4.8,0-6.6l-6.6-6.6C75.8,21.9,72.8,21.9,71,23.7z M62.9,31.9L58,36.7c-0.4,0.4-1,0.5-1.6,0.4
			c-4.2-1.3-8.7-1.3-12.9,0c-0.6,0.2-1.2,0-1.6-0.4L37,31.8c-0.8-0.8-0.5-2.1,0.5-2.5c7.9-3.4,16.9-3.4,24.8,0
			C63.4,29.8,63.7,31.1,62.9,31.9z M61,69c-6,6.1-16,6.1-22,0s-6.1-16,0-22s16-6.1,22.1,0S67.1,63,61,69z M25.7,29.3l11.2,11.2
			c-0.8,0.6-1.6,1.3-2.4,2s-1.4,1.5-2,2.4L21.3,33.7L25.7,29.3z M23.9,45.1l4.9,4.9c0.4,0.4,0.5,1,0.4,1.6c-1.3,4.2-1.3,8.7,0,12.9
			c0.2,0.6,0,1.2-0.4,1.6L23.9,71c-0.8,0.8-2.1,0.5-2.5-0.5c-3.4-7.9-3.4-16.9,0-24.8C21.8,44.6,23.1,44.3,23.9,45.1z M21.3,82.3
			l11.2-11.2c0.6,0.8,1.3,1.6,2,2.4c0.8,0.8,1.5,1.4,2.4,2L25.7,86.7L21.3,82.3z M37.1,84.1l4.9-4.9c0.4-0.4,1-0.5,1.6-0.4
			c4.2,1.3,8.7,1.3,12.9,0c0.6-0.2,1.2,0,1.6,0.4l4.9,4.9c0.8,0.8,0.5,2.1-0.5,2.5c-7.9,3.4-16.9,3.4-24.8,0
			C36.6,86.2,36.3,84.9,37.1,84.1z M74.3,86.7L63.1,75.5c0.8-0.6,1.6-1.3,2.4-2c0.8-0.8,1.4-1.5,2-2.4l11.2,11.2L74.3,86.7z
			 M76.1,70.9L71.3,66c-0.4-0.4-0.5-1-0.4-1.6c1.3-4.2,1.3-8.7,0-12.9c-0.2-0.6,0-1.2,0.4-1.6l4.9-4.9c0.8-0.8,2.1-0.5,2.5,0.5
			c3.4,7.9,3.4,16.9,0,24.8C78.2,71.4,76.9,71.7,76.1,70.9z M78.7,33.7L67.5,44.9c-0.6-0.8-1.3-1.6-2-2.4c-0.8-0.8-1.5-1.4-2.4-2
			l11.2-11.2L78.7,33.7z"/>
	</g>
	<g class="st0">
		<path class="st1" d="M59.4,61c0,1.7-1.4,3-3.1,3H50c-1.7,0-3-1.1-3-2.9V48.6c0-1.7,1.3-3.1,3-3.1s3,1.4,3,3.1V58h3.2
			C58,58,59.4,59.3,59.4,61z M62.5,89.2c-1.7,0-3.5,1.4-3.5,3.1v6.2c0,1.7,1.8,3.1,3.5,3.1c1.7,0,3.5-1.4,3.5-3.1v-6.2
			C66,90.6,64.2,89.2,62.5,89.2z M79.7,51.8c-0.4,0-0.8,0.1-1.2,0.3c-0.5,0.2-0.8,0-0.9-0.5c-1.7-7-6.6-13-11.6-16.8V17.4
			c0-1.8-1.9-3.3-3.8-3.1c-1.6,0.1-3.2,1.6-3.2,3.2v11.9c0,1-0.8,1.8-1.8,1.5c-2.4-0.6-4.7-1-7.3-1s-4.8,0.3-7.2,1
			c-1,0.3-1.8-0.5-1.8-1.5v-12c0-1.8-1.9-3.3-3.8-3.1c-1.5,0.1-3.1,1.6-3.1,3.2v17.1C27,39.7,21.5,48.3,21.5,58S27,76.3,34,81.4
			v17.3c0,1.8,1.9,3.3,3.8,3.1c1.6-0.2,3.2-1.6,3.2-3.2v-12c0-1,0.8-1.8,1.8-1.5c3.1,0.9,6.4,1.2,9.9,0.9c12.1-1.1,22-10,24.7-21.5
			c0.1-0.5,0.6-0.7,1.1-0.5c0.3,0.2,0.8,0.2,1.2,0.3c1.8,0.1,3.3-1.5,3.3-3.3v-6C83,53.3,81.5,51.7,79.7,51.8z M50,79.9
			c-12.1,0-21.9-9.8-21.9-21.9S37.9,36.1,50,36.1S71.9,45.9,71.9,58S62.1,79.9,50,79.9z"/>
	</g>
	<g class="st0">
		<g class="st2">
			<path class="st3" d="M85.9,36.1H67.2c-0.9,0-1.6-0.7-1.6-1.6v-4.7c0-3.5-2.8-6.2-6.2-6.2H40.6c-3.5,0-6.2,2.8-6.2,6.2v4.7
				c0,0.9-0.7,1.6-1.6,1.6h-4.7h-6.2h-7.8c-2.6,0-4.7,2.1-4.7,4.7v46.9c0,2.6,2.1,4.7,4.7,4.7H86c2.6,0,4.7-2.1,4.7-4.7V40.8
				C90.6,38.2,88.5,36.1,85.9,36.1z M41.4,29.9h17.2c0.4,0,0.8,0.3,0.8,0.8v5.5H40.6v-5.5C40.6,30.2,41,29.9,41.4,29.9z M72,42v16.8
				c-7,3.5-14.4,5.4-22,5.4s-15-1.9-22-5.4V42H72z M16,86V42h6v44H16z M28,65.8c7,3.1,14.4,4.7,22,4.7s15-1.6,22-4.7V86H28V65.8z
				 M84,86h-6V42h6V86z"/>
			<rect x="47" y="49" class="st3" width="6" height="9"/>
		</g>
	</g>
	<g class="st0">
		<g class="st2">
			<path class="st3" d="M70.3,54.9H39.1c-0.9,0-1.6-0.7-1.6-1.6V39.6c0-6.7,5.2-12.5,11.9-12.8c7.2-0.4,13.1,5.4,13.1,12.5v6.1
				c0,1.6,1.2,3.1,2.8,3.2c1.9,0.2,3.4-1.3,3.4-3.1v-5.8c0-10.5-8.6-19.4-19.1-19.2C39.5,20.7,31.2,29,31.2,39.2v14.1
				c0,0.9-0.7,1.6-1.6,1.6l0,0c-2.6,0-4.7,2.1-4.7,4.7V94c0,2.6,2.1,4.7,4.7,4.7h40.6c2.6,0,4.7-2.1,4.7-4.7V59.6
				C75,57,72.9,54.9,70.3,54.9z M68,92.4H32c-0.4,0-0.8-0.3-0.8-0.8V61.9c0-0.4,0.3-0.8,0.8-0.8h36c0.4,0,0.8,0.3,0.8,0.8v29.7
				C68.8,92,68.4,92.4,68,92.4z"/>
			<path class="st3" d="M50,70.5L50,70.5c-1.7,0-3.1,1.4-3.1,3.1V83h6.2v-9.4C53.1,71.9,51.7,70.5,50,70.5z"/>
		</g>
	</g>
	<g class="st0">
		<path class="st1" d="M59.4,61c0,1.7-1.4,3-3.1,3H50c-1.7,0-3-1.1-3-2.9v-9.4c0-1.7,1.3-3.1,3-3.1s3,1.4,3,3.1V58h3.2
			C58,58,59.4,59.3,59.4,61z M81,45.5v9.4c0,1.7-1.1,3.1-2.9,3.1H75v15.6c0,4.8-2.7,9-6.7,11.1l-0.1,0.7c-1.5,3-2.1,6.4-2.1,9.8v3.5
			c0,0.9-0.6,1.7-1.2,2.3c-0.5,0.4-4.8,3.9-14.7,3.9c-9.7,0-14.3-3.5-14.7-3.9c-0.7-0.6-1.3-1.5-1.3-2.4v-3.5c0-3.4-0.6-6.8-2.1-9.8
			l-0.2-0.7c-4-2.1-6.6-6.3-6.6-11.1V42.4c0-4.8,2.7-9,6.7-11.1l0.1-0.7c1.5-3,2.1-6.4,2.1-9.8v-3.4c0-0.8,0.5-1.6,1.1-2.2
			c0.7-0.7,4.6-4,14.8-4s14.3,3.4,14.9,4c0.4,0.6,1,1.3,1,2.2v3.5c0,3.4,0.6,6.8,2.1,9.8l0.2,0.5C72.4,33.2,75,38,75,42h3.1
			C79.9,42,81,43.8,81,45.5z M41,20.8c0,2.4-0.5,4.8-1.1,7.1c-0.3,1,0.3,2,1.3,2h17.6c1,0,1.6-1,1.3-2c-0.6-2.3-1.1-4.7-1.1-7.1V19
			c-1-0.7-3.9-1.7-9-1.7s-8,1-9,1.7L41,20.8z M59,95.2c0-2.4,0.5-4.8,1.1-7.1c0.3-1-0.3-2-1.3-2H41.2c-1,0-1.6,1-1.3,2
			c0.6,2.3,1.1,4.7,1.1,7.1v1.7c1,0.7,4.1,1.8,9,1.8s8-1,9-1.7V95.2z M69,42.2c0-3.5-2.8-6.2-6.2-6.2H37.2c-3.5,0-6.2,2.8-6.2,6.2
			v31.5c0,3.5,2.8,6.2,6.2,6.2h25.5c3.5,0,6.2-2.8,6.2-6.2L69,42.2L69,42.2z"/>
	</g>
	<g class="st0">
		<g class="st2">
			<rect x="66" y="61" class="st3" width="6" height="6"/>
			<path class="st3" d="M83.6,48.6h-2.3V37.7c0-2.6-2.1-4.7-4.7-4.7H22c-1.6,0-3.1-1.2-3.2-2.8c-0.2-1.9,1.3-3.4,3.1-3.4h53
				c1.6,0,3.1-1.2,3.2-2.8c0.2-1.9-1.3-3.4-3.1-3.4H22.1c-4.9,0-9.1,3.6-9.6,8.5c-0.5,5.6,3.9,10.3,9.3,10.3H75v7.8
				c0,0.9-0.7,1.6-1.6,1.6H66c-8.5,0-15.7,6.6-16,15C49.7,72.7,56.8,80,65.6,80h7.8c0.9,0,1.6,0.7,1.6,1.6v7.8H18.8V45.6
				c0-1.6-1.2-3.1-2.8-3.2c-1.9-0.2-3.4,1.3-3.4,3.1v45.3c0,2.6,2.1,4.7,4.7,4.7h59.4c2.6,0,4.7-2.1,4.7-4.7V79.9h2.3
				c2.2,0,3.9-1.7,3.9-3.9V52.5C87.5,50.4,85.8,48.6,83.6,48.6z M80.5,73.6H65.9c-4.9,0-9.1-3.6-9.6-8.5c-0.5-5.6,3.9-10.3,9.3-10.3
				h14.8c0.4,0,0.8,0.3,0.8,0.8v17.2C81.2,73.3,80.9,73.6,80.5,73.6z"/>
		</g>
	</g>
	<g class="st0">
		<path class="st1" d="M21.9,74c0-1.7,1.4-3,3.1-3h12.5c1.7,0,3.1,1.3,3.1,3s-1.4,3-3.1,3H25C23.3,77,21.9,75.7,21.9,74z M50,77h6.2
			c1.7,0,3.1-1.3,3.1-3s-1.4-3-3.1-3H50c-1.7,0-3.1,1.3-3.1,3S48.3,77,50,77z M71.9,77H75c1.7,0,3.1-1.3,3.1-3s-1.4-3-3.1-3h-3.1
			c-1.7,0-3.1,1.3-3.1,3S70.1,77,71.9,77z M91,36.1v2.3v0.8v3.1v2.3v43c0,2.6-2.5,4.3-5.1,4.3H14.1C11.5,92,9,90.3,9,87.7v-43v-2.3
			v-3.1v-1.6v-1.6C9,31,13.6,27,18.8,27h62.5C86.4,27,91,31,91,36.1z M84,55H16v31h68V55z M84,38.5v-2.3c0-1.7-1-3.1-2.8-3.1H18.8
			C17,33,16,34.4,16,36.1v1.6v1.6V42h68v-2.8V38.5z"/>
	</g>
</g>
</svg>
