<svg id="Warstwa_1" data-name="Warstwa 1" xmlns="http://www.w3.org/2000/svg" viewBox="0 0 164.64 70.56"><defs><style>.cls-1{fill:#d45b5f;}</style></defs><path class="cls-1" d="M86.74,2H79.83L65.56,38.34h5.25a2.2,2.2,0,0,0,1.44-.48A2.3,2.3,0,0,0,73,36.8l2.72-7.41,1.74-4.77h0l.66-1.79h0l3.76-10.25c.22-.55.44-1.2.67-1.94s.46-1.53.69-2.38c.24.85.47,1.64.72,2.37s.46,1.36.66,1.9l4.43,12.09H83.75l-1.58,4.77h8.64l2.71,7.41a2.54,2.54,0,0,0,.82,1.1,2.32,2.32,0,0,0,1.45.44H101Z"/><path class="cls-1" d="M16.22,60.89a.92.92,0,0,1,.28,0,.71.71,0,0,1,.27.18l1.56,1.65a6.44,6.44,0,0,1-2.57,2,8.92,8.92,0,0,1-3.66.69,8.74,8.74,0,0,1-3.48-.66A7.57,7.57,0,0,1,6,63a8,8,0,0,1-1.64-2.76,10,10,0,0,1-.58-3.46,9.64,9.64,0,0,1,.62-3.5,8,8,0,0,1,1.74-2.75,7.81,7.81,0,0,1,2.69-1.8,8.93,8.93,0,0,1,3.44-.65,8.88,8.88,0,0,1,3.39.64,7.32,7.32,0,0,1,1.36.72,7.1,7.1,0,0,1,1.1.91L16.8,52.14a1.42,1.42,0,0,1-.3.3.79.79,0,0,1-.49.13.93.93,0,0,1-.4-.09l-.39-.23L14.75,52a3,3,0,0,0-.59-.3,4.7,4.7,0,0,0-.81-.22,5,5,0,0,0-1.08-.1,4.22,4.22,0,0,0-1.79.37,3.89,3.89,0,0,0-1.4,1,4.74,4.74,0,0,0-.91,1.71,7.4,7.4,0,0,0-.33,2.31A6.93,6.93,0,0,0,8.2,59.1a5.06,5.06,0,0,0,1,1.71,4.2,4.2,0,0,0,1.43,1.06,4.32,4.32,0,0,0,1.75.36,9.55,9.55,0,0,0,1,0,4.84,4.84,0,0,0,.83-.18,3.67,3.67,0,0,0,.73-.32,5.67,5.67,0,0,0,.69-.52,1.21,1.21,0,0,1,.3-.2A.8.8,0,0,1,16.22,60.89Z"/><path class="cls-1" d="M24.5,53a6.92,6.92,0,0,1,2.51.43A5.47,5.47,0,0,1,29,54.66a5.61,5.61,0,0,1,1.26,2,7,7,0,0,1,.45,2.58,7.24,7.24,0,0,1-.45,2.62,5.65,5.65,0,0,1-1.26,2A5.49,5.49,0,0,1,27,65a6.92,6.92,0,0,1-2.51.44A7.07,7.07,0,0,1,22,65a5.62,5.62,0,0,1-2-1.25,5.53,5.53,0,0,1-1.27-2,7.24,7.24,0,0,1-.45-2.62,7,7,0,0,1,.45-2.58,5.49,5.49,0,0,1,1.27-2,5.6,5.6,0,0,1,2-1.24A7.07,7.07,0,0,1,24.5,53Zm0,9.8a2,2,0,0,0,1.84-.88,4.82,4.82,0,0,0,.59-2.68,4.82,4.82,0,0,0-.59-2.68,2.06,2.06,0,0,0-1.84-.87,2.13,2.13,0,0,0-1.88.87A4.82,4.82,0,0,0,22,59.23a4.82,4.82,0,0,0,.59,2.68A2.11,2.11,0,0,0,24.5,62.79Z"/><path class="cls-1" d="M32,65.29V53.18h2.25a.85.85,0,0,1,.89.6l.19.66c.21-.21.42-.4.63-.58a4.05,4.05,0,0,1,.71-.45,4.22,4.22,0,0,1,.82-.31,4.08,4.08,0,0,1,1-.11,2.83,2.83,0,0,1,1.82.57,3.47,3.47,0,0,1,1.09,1.51,3.72,3.72,0,0,1,.74-1,4.17,4.17,0,0,1,1-.64,5,5,0,0,1,1.07-.36A5.5,5.5,0,0,1,45.27,53a5.09,5.09,0,0,1,1.85.31,3.72,3.72,0,0,1,1.35.9,4,4,0,0,1,.82,1.45,6.14,6.14,0,0,1,.28,1.94v7.7H46v-7.7c0-1.25-.54-1.88-1.61-1.88a1.63,1.63,0,0,0-1.22.49,1.86,1.86,0,0,0-.49,1.39v7.7H39v-7.7a2.09,2.09,0,0,0-.41-1.46,1.59,1.59,0,0,0-1.2-.42,2.12,2.12,0,0,0-.93.22,3.32,3.32,0,0,0-.82.6v8.76Z"/><path class="cls-1" d="M54.84,54.67a6.13,6.13,0,0,1,1.62-1.24,4.52,4.52,0,0,1,2.15-.49,3.71,3.71,0,0,1,1.75.42,4,4,0,0,1,1.39,1.22,6.13,6.13,0,0,1,.92,1.94A9.5,9.5,0,0,1,63,59.13a7.85,7.85,0,0,1-.38,2.53,6.22,6.22,0,0,1-1.06,2A4.86,4.86,0,0,1,59.93,65a4.64,4.64,0,0,1-2.11.48,4.13,4.13,0,0,1-1.59-.27,4.39,4.39,0,0,1-1.17-.72v4.64H51.44V53.18h2.24a.85.85,0,0,1,.89.6ZM55.06,62a2.51,2.51,0,0,0,.89.63,2.81,2.81,0,0,0,1,.18,2.18,2.18,0,0,0,.93-.19,2,2,0,0,0,.73-.64,3.56,3.56,0,0,0,.48-1.14,7,7,0,0,0,.18-1.71,8.17,8.17,0,0,0-.14-1.61,3.34,3.34,0,0,0-.4-1.05,1.39,1.39,0,0,0-.6-.58,1.66,1.66,0,0,0-.78-.18A2.67,2.67,0,0,0,56,56a3.67,3.67,0,0,0-1,.86Z"/><path class="cls-1" d="M64.14,54.86a7.18,7.18,0,0,1,2.43-1.44,8.43,8.43,0,0,1,2.87-.48,5.21,5.21,0,0,1,2,.36,4.17,4.17,0,0,1,2.44,2.51,5.59,5.59,0,0,1,.32,1.91v7.57H72.52a1.7,1.7,0,0,1-.77-.14,1.06,1.06,0,0,1-.44-.58l-.26-.67c-.3.26-.59.48-.87.68a5.36,5.36,0,0,1-.87.49,4.31,4.31,0,0,1-1,.31,5.66,5.66,0,0,1-1.13.1,4.83,4.83,0,0,1-1.51-.22,3,3,0,0,1-1.15-.64,2.8,2.8,0,0,1-.73-1,3.81,3.81,0,0,1-.25-1.44,3.13,3.13,0,0,1,.32-1.33A3.28,3.28,0,0,1,65,59.58a7.14,7.14,0,0,1,2.17-.92,14.48,14.48,0,0,1,3.45-.42v-.52a2.2,2.2,0,0,0-.44-1.53A1.61,1.61,0,0,0,69,55.71a3.42,3.42,0,0,0-1,.14,5.52,5.52,0,0,0-.73.32c-.21.11-.42.22-.62.31a1.67,1.67,0,0,1-.73.14,1.07,1.07,0,0,1-.63-.18,1.79,1.79,0,0,1-.42-.45Zm6.52,5.5a11,11,0,0,0-1.79.19,4.15,4.15,0,0,0-1.11.35,1.4,1.4,0,0,0-.57.48A1.18,1.18,0,0,0,67,62a1,1,0,0,0,.34.87,1.66,1.66,0,0,0,1,.25,2.92,2.92,0,0,0,1.22-.24,3.87,3.87,0,0,0,1.07-.8Z"/><path class="cls-1" d="M79.37,54.49a8.29,8.29,0,0,1,.72-.61,3.81,3.81,0,0,1,.8-.47,5.34,5.34,0,0,1,.93-.31A5.2,5.2,0,0,1,82.9,53a4.42,4.42,0,0,1,1.76.34,3.76,3.76,0,0,1,1.29,1,4.2,4.2,0,0,1,.79,1.46A6.06,6.06,0,0,1,87,57.59v7.7H83.39v-7.7A2.12,2.12,0,0,0,83,56.21a1.46,1.46,0,0,0-1.2-.5,2.66,2.66,0,0,0-1.12.25,4.54,4.54,0,0,0-1,.69v8.64H76V53.18h2.24a.85.85,0,0,1,.89.6Z"/><path class="cls-1" d="M100,53.18,93.55,68.43a1.26,1.26,0,0,1-.4.53,1.21,1.21,0,0,1-.74.17H89.7L92,64.23,87.2,53.18h3.2a1,1,0,0,1,.65.18,1.19,1.19,0,0,1,.33.45l2,5.22a10.32,10.32,0,0,1,.46,1.46l.26-.75c.08-.25.17-.49.27-.73l1.79-5.2a1,1,0,0,1,.38-.45,1,1,0,0,1,.58-.18Z"/><path class="cls-1" d="M108.3,54.49c.24-.22.48-.42.73-.61a3.57,3.57,0,0,1,.8-.47,5,5,0,0,1,.92-.31,5.2,5.2,0,0,1,1.08-.11,4.42,4.42,0,0,1,1.76.34,3.76,3.76,0,0,1,1.29,1,4.22,4.22,0,0,1,.8,1.46,6.06,6.06,0,0,1,.26,1.84v7.7h-3.62v-7.7a2.07,2.07,0,0,0-.41-1.38,1.46,1.46,0,0,0-1.2-.5,2.58,2.58,0,0,0-1.11.25,4.32,4.32,0,0,0-1,.69v8.64H105V53.18h2.25a.84.84,0,0,1,.88.6Z"/><path class="cls-1" d="M117.54,54.86A7.32,7.32,0,0,1,120,53.42a8.43,8.43,0,0,1,2.87-.48,5.21,5.21,0,0,1,2,.36,4.32,4.32,0,0,1,1.49,1,4.23,4.23,0,0,1,.94,1.52,5.36,5.36,0,0,1,.33,1.91v7.57h-1.66a1.7,1.7,0,0,1-.77-.14,1,1,0,0,1-.44-.58l-.26-.67c-.3.26-.6.48-.88.68a5.36,5.36,0,0,1-.87.49,4.4,4.4,0,0,1-.95.31,5.66,5.66,0,0,1-1.13.1,4.79,4.79,0,0,1-1.51-.22,3,3,0,0,1-1.15-.64,2.8,2.8,0,0,1-.73-1,3.81,3.81,0,0,1-.26-1.44,3,3,0,0,1,.33-1.33,3.33,3.33,0,0,1,1.13-1.23,7.32,7.32,0,0,1,2.18-.92,14.46,14.46,0,0,1,3.44-.42v-.52a2.2,2.2,0,0,0-.43-1.53,1.62,1.62,0,0,0-1.25-.48,3.37,3.37,0,0,0-1,.14,5,5,0,0,0-.73.32c-.21.11-.42.22-.63.31a1.6,1.6,0,0,1-.72.14,1.07,1.07,0,0,1-.63-.18,1.79,1.79,0,0,1-.42-.45Zm6.52,5.5a10.89,10.89,0,0,0-1.78.19,4.15,4.15,0,0,0-1.11.35,1.28,1.28,0,0,0-.57.48,1.08,1.08,0,0,0-.16.58,1,1,0,0,0,.34.87,1.65,1.65,0,0,0,1,.25,2.93,2.93,0,0,0,1.23-.24,3.84,3.84,0,0,0,1.06-.8Z"/><path class="cls-1" d="M129.44,65.29V53.18h2.24a.85.85,0,0,1,.89.6l.2.66a6.87,6.87,0,0,1,.63-.58,3.64,3.64,0,0,1,.7-.45,4.47,4.47,0,0,1,.82-.31,4.08,4.08,0,0,1,1-.11,2.83,2.83,0,0,1,1.82.57,3.47,3.47,0,0,1,1.09,1.51,4,4,0,0,1,.74-1,4.17,4.17,0,0,1,.95-.64,4.9,4.9,0,0,1,1.08-.36,5.33,5.33,0,0,1,1.12-.12,5.05,5.05,0,0,1,1.85.31,3.56,3.56,0,0,1,1.35.9,4,4,0,0,1,.82,1.45,6.14,6.14,0,0,1,.28,1.94v7.7h-3.62v-7.7c0-1.25-.54-1.88-1.61-1.88a1.63,1.63,0,0,0-1.22.49,1.86,1.86,0,0,0-.49,1.39v7.7h-3.62v-7.7a2,2,0,0,0-.41-1.46,1.59,1.59,0,0,0-1.2-.42,2.12,2.12,0,0,0-.93.22,3.32,3.32,0,0,0-.82.6v8.76Z"/><path class="cls-1" d="M151.83,59.88a3.39,3.39,0,0,0,.92,2.2,2.73,2.73,0,0,0,1.93.69,3.54,3.54,0,0,0,1.09-.15,7.92,7.92,0,0,0,.81-.34l.65-.34a1.39,1.39,0,0,1,.63-.15.74.74,0,0,1,.65.31l1.05,1.3a4.89,4.89,0,0,1-1.21,1,6,6,0,0,1-1.33.63,6.7,6.7,0,0,1-1.36.32,10.07,10.07,0,0,1-1.31.09,6.75,6.75,0,0,1-2.39-.42,5.39,5.39,0,0,1-2-1.23,6,6,0,0,1-1.32-2,7.66,7.66,0,0,1-.48-2.83,6.51,6.51,0,0,1,.41-2.3,5.82,5.82,0,0,1,1.19-1.9,5.7,5.7,0,0,1,1.88-1.3,6.74,6.74,0,0,1,4.7-.11,4.86,4.86,0,0,1,1.72,1.09,5,5,0,0,1,1.12,1.75,6.38,6.38,0,0,1,.4,2.34,5.86,5.86,0,0,1,0,.66,1.16,1.16,0,0,1-.13.41.51.51,0,0,1-.25.21,1.16,1.16,0,0,1-.4.06Zm4.56-2.1a2.94,2.94,0,0,0-.12-.84,1.92,1.92,0,0,0-.36-.73,1.8,1.8,0,0,0-.66-.52,2.27,2.27,0,0,0-1-.2,2.17,2.17,0,0,0-1.61.59,3,3,0,0,0-.77,1.7Z"/></svg>