<?xml version="1.0" encoding="utf-8" standalone="no"?>
<!DOCTYPE svg PUBLIC "-//W3C//DTD SVG 20010904//EN"
 "http://www.w3.org/TR/2001/REC-SVG-20010904/DTD/svg10.dtd">
<svg version="1.0" xmlns="http://www.w3.org/2000/svg"
 width="600.000000pt" height="300.000000pt" viewBox="0 0 600.000000 300.000000"
 preserveAspectRatio="xMidYMid meet">

<g transform="translate(0.000000,300.000000) scale(0.100000,-0.100000)"
fill="#000000" stroke="none">
<path d="M2431 2337 c-2 -101 -51 -172 -206 -296 -175 -140 -210 -201 -166
-297 20 -43 146 -194 162 -194 5 0 -9 27 -31 61 -52 76 -70 118 -70 166 0 59
36 118 113 186 102 88 162 154 192 210 34 60 43 140 22 187 l-15 35 -1 -58z"/>
<path d="M2525 2042 c-133 -57 -216 -120 -246 -187 -31 -68 -20 -125 41 -206
48 -64 57 -97 35 -139 -16 -31 -16 -31 4 -21 33 18 72 78 78 118 4 33 -2 48
-41 108 -81 124 -62 174 113 294 78 54 82 61 16 33z"/>
<path d="M3088 1598 c2 -90 0 -210 -3 -267 -7 -99 -8 -105 -41 -141 -29 -32
-32 -39 -21 -55 12 -16 16 -16 43 -2 84 43 93 79 94 380 l0 247 -37 0 -38 0 3
-162z"/>
<path d="M3285 1616 c-22 -6 -39 -15 -37 -19 1 -4 2 -13 2 -21 0 -12 7 -13 32
-5 18 5 54 9 79 9 56 0 79 -21 79 -73 l0 -37 -52 0 c-63 0 -131 -29 -149 -62
-7 -12 -12 -43 -12 -67 0 -36 5 -49 27 -68 35 -30 101 -31 157 -2 l41 20 5
-20 c3 -14 14 -21 29 -21 l24 0 0 156 c0 87 -4 164 -10 175 -25 46 -125 62
-215 35z m155 -236 c0 -45 -3 -51 -30 -65 -45 -23 -87 -19 -106 11 -35 53 10
104 94 104 l42 0 0 -50z"/>
<path d="M3570 1624 c0 -4 26 -90 57 -191 l57 -184 45 3 45 3 28 70 c37 89 89
287 78 298 -4 5 -20 7 -36 5 -27 -3 -29 -7 -45 -83 -19 -92 -48 -197 -58 -208
-4 -4 -24 48 -43 115 -53 179 -50 173 -92 176 -20 2 -36 0 -36 -4z"/>
<path d="M3993 1619 c-37 -11 -46 -21 -37 -42 4 -12 12 -13 37 -6 94 27 157 0
157 -66 0 -35 0 -35 -46 -35 -106 0 -163 -38 -171 -114 -5 -40 -2 -48 25 -76
26 -25 38 -30 79 -30 30 0 60 7 81 20 40 24 38 24 45 0 3 -14 14 -20 31 -20
l26 0 0 151 c0 168 -9 200 -63 219 -36 12 -120 12 -164 -1z m157 -239 c0 -45
-3 -51 -30 -65 -63 -32 -120 -11 -120 45 0 42 40 70 101 70 l49 0 0 -50z"/>
<path d="M2732 1501 c66 -37 85 -90 53 -150 -16 -31 -111 -121 -128 -121 -6 0
-8 -2 -5 -5 8 -8 89 29 134 63 28 21 47 45 59 77 17 43 17 49 2 80 -21 43 -55
66 -109 71 l-43 5 37 -20z"/>
<path d="M1988 1493 c7 -3 16 -2 19 1 4 3 -2 6 -13 5 -11 0 -14 -3 -6 -6z"/>
<path d="M1895 1476 c-184 -58 -122 -96 170 -103 202 -5 395 13 459 43 l31 14
-45 -5 c-265 -29 -572 -32 -604 -6 -25 21 -19 30 27 51 48 22 24 26 -38 6z"/>
<path d="M1948 1294 c-111 -60 118 -122 354 -96 62 7 138 19 168 25 l55 13
-27 18 c-25 16 -34 17 -100 5 -40 -7 -139 -12 -220 -12 -161 0 -213 12 -205
45 3 10 4 18 4 18 -1 -1 -14 -8 -29 -16z"/>
<path d="M1995 1118 c-49 -27 -32 -57 49 -85 74 -26 285 -25 379 1 37 10 67
22 67 26 0 3 -15 14 -34 23 -29 13 -45 14 -103 5 -70 -11 -285 -6 -315 6 -9 4
-18 14 -20 21 -2 11 -8 11 -23 3z"/>
<path d="M1765 996 c-64 -20 -115 -54 -115 -75 0 -60 633 -90 893 -43 124 23
204 51 233 83 10 11 12 19 6 19 -7 0 -12 -4 -12 -10 0 -85 -847 -117 -1002
-38 -30 15 -20 38 25 58 47 22 33 25 -28 6z"/>
<path d="M2825 885 c-34 -24 -194 -64 -320 -80 -65 -8 -207 -16 -315 -17 -148
-1 -177 -3 -120 -8 329 -31 699 19 770 105 15 18 11 18 -15 0z"/>
<path d="M1953 793 c9 -2 23 -2 30 0 6 3 -1 5 -18 5 -16 0 -22 -2 -12 -5z"/>
</g>
</svg>
