<svg xmlns="http://www.w3.org/2000/svg" version="1.1" xmlns:xlink="http://www.w3.org/1999/xlink" xmlns:svgjs="http://svgjs.com/svgjs" width="1920" height="1080" preserveAspectRatio="none" viewBox="0 0 1920 1080"><g mask="url(&quot;#SvgjsMask1107&quot;)" fill="none"><rect width="1920" height="1080" x="0" y="0" fill="rgba(255, 255, 255, 1)"></rect><path d="M592.28 257.04 a69.41 69.41 0 1 0 138.82 0 a69.41 69.41 0 1 0 -138.82 0z" fill="rgba(252, 68, 68, 1)"></path><path d="M1619.2 647.05L1619.49 647.05L1619.49 738.32L1619.2 738.32z" stroke="rgba(252, 68, 68, 1)"></path><path d="M417.49 732.7L517.48 732.7L517.48 832.69L417.49 832.69z" stroke="rgba(69, 172, 220, 1)"></path><path d="M741.21 517.42a25.92 25.92 0 1 0 25.03-45.4z" stroke="rgba(69, 172, 220, 1)"></path><path d="M637.02 472.41 a17.62 17.62 0 1 0 35.24 0 a17.62 17.62 0 1 0 -35.24 0z" stroke="rgba(69, 172, 220, 1)"></path><path d="M1858.84 199.99a41.63 41.63 0 1 0 82.16-13.46z" fill="rgba(252, 68, 68, 1)"></path><path d="M1263.38 540.38L1263.63 540.38L1263.63 540.63L1263.38 540.63z" fill="rgba(69, 172, 220, 1)"></path><path d="M265.09 318.81L345.35 318.81L345.35 419.56L265.09 419.56z" fill="rgba(252, 68, 68, 1)"></path><path d="M105.34 197.28L170.41 197.28L170.41 224.16L105.34 224.16z" fill="rgba(69, 172, 220, 1)"></path><path d="M1628.79 890.08L1690.56 890.08L1690.56 951.85L1628.79 951.85z" fill="rgba(252, 68, 68, 1)"></path><path d="M850.58 824.77L923.91 824.77L923.91 873.15L850.58 873.15z" fill="rgba(69, 172, 220, 1)"></path><path d="M1786.46 207.82 a30.26 30.26 0 1 0 60.52 0 a30.26 30.26 0 1 0 -60.52 0z" fill="rgba(252, 68, 68, 1)"></path><path d="M245.99 500.25a35.11 35.11 0 1 0-10.94 69.36z" stroke="rgba(252, 68, 68, 1)"></path><path d="M336.87 343.83 a87.04 87.04 0 1 0 174.08 0 a87.04 87.04 0 1 0 -174.08 0z" stroke="rgba(252, 68, 68, 1)"></path><path d="M9.44 264.75L65.1 264.75L65.1 320.41L9.44 320.41z" fill="rgba(69, 172, 220, 1)"></path><path d="M1193.89 476.79L1215.37 476.79L1215.37 568.18L1193.89 568.18z" stroke="rgba(252, 68, 68, 1)"></path><path d="M1300.84 688.06L1379.68 688.06L1379.68 765.43L1300.84 765.43z" fill="rgba(69, 172, 220, 1)"></path><path d="M1546.07 740.98L1558.14 740.98L1558.14 753.05L1546.07 753.05z" fill="rgba(252, 68, 68, 1)"></path><path d="M1709.41 643.25L1785.27 643.25L1785.27 736.72L1709.41 736.72z" fill="rgba(69, 172, 220, 1)"></path><path d="M550.96 1050.22L555.57 1050.22L555.57 1155.06L550.96 1155.06z" stroke="rgba(69, 172, 220, 1)"></path><path d="M835.29 10.66L852.15 10.66L852.15 24L835.29 24z" fill="rgba(252, 68, 68, 1)"></path><path d="M570.45 328.86a21.09 21.09 0 1 0 20.45-36.89z" fill="rgba(252, 68, 68, 1)"></path><path d="M1723.72 358.06L1759.79 358.06L1759.79 394.13L1723.72 394.13z" stroke="rgba(252, 68, 68, 1)"></path></g><defs><mask id="SvgjsMask1107"><rect width="1920" height="1080" fill="#ffffff"></rect></mask></defs></svg>