<?xml version="1.0" encoding="utf-8"?>
<!-- Generator: Adobe Illustrator 25.4.1, SVG Export Plug-In . SVG Version: 6.00 Build 0)  -->
<svg version="1.1" id="Warstwa_2_00000039123423717475485140000011132265691933279128_"
	 xmlns="http://www.w3.org/2000/svg" xmlns:xlink="http://www.w3.org/1999/xlink" x="0px" y="0px" viewBox="0 0 57.2 57.3"
	 style="enable-background:new 0 0 57.2 57.3;" xml:space="preserve">
<style type="text/css">
	.st0{fill:#3D3D3D;}
	.st1{fill:#FFFFFF;}
</style>
<g>
	<path class="st0" d="M56.6,44.6c-1.7-1.7-3.5-3.5-5.2-5.2c-2.8-2.8-5.5-5.5-8.3-8.3c-0.2-0.2-0.3-0.3-0.5-0.5
		c0.9-0.9,1.7-1.7,2.6-2.6c2.1-2.1,4.3-4.3,6.4-6.4c0.5-0.5,1-1,1.5-1.5s0.7-1.3,0.5-2s-0.7-1.2-1.4-1.4c-0.4-0.2-0.9-0.3-1.3-0.4
		c-1.2-0.4-2.4-0.8-3.6-1.2c-1.8-0.6-3.6-1.2-5.3-1.8c-2.2-0.7-4.4-1.5-6.5-2.2c-2.4-0.8-4.8-1.6-7.1-2.4c-2.4-0.8-4.8-1.6-7.2-2.4
		c-2.3-0.8-4.5-1.5-6.8-2.3c-1.9-0.6-3.8-1.3-5.7-1.9C7.3,1.6,6,1.2,4.6,0.7C4,0.5,3.3,0.2,2.7,0.1H2.6c-1.4-0.5-3,1.1-2.5,2.5
		C0.3,3,0.4,3.5,0.5,3.9c0.4,1.2,0.8,2.4,1.2,3.6c0.6,1.8,1.2,3.6,1.8,5.3C4.2,15,5,17.2,5.7,19.3c0.8,2.4,1.6,4.8,2.4,7.1
		c0.8,2.4,1.6,4.8,2.4,7.2c0.8,2.3,1.5,4.5,2.3,6.8c0.6,1.9,1.3,3.8,1.9,5.7c0.5,1.4,0.9,2.7,1.4,4.1c0.2,0.6,0.4,1.3,0.6,1.9v0.1
		c0.2,0.7,0.7,1.2,1.4,1.4c0.7,0.2,1.5,0,2-0.5c1.3-1.3,2.7-2.7,4-4c2.1-2.1,4.3-4.3,6.4-6.4l0,0c1.3,1.3,2.5,2.5,3.8,3.8
		c2.8,2.8,5.5,5.5,8.3,8.3c0.6,0.6,1.3,1.3,1.9,1.9c0.8,0.8,2.1,0.8,2.9,0c1.1-1.1,2.1-2.1,3.1-3.1c1.7-1.7,3.3-3.3,5-5
		c0.4-0.4,0.8-0.8,1.1-1.1C57.4,46.7,57.4,45.4,56.6,44.6z M45.9,52.4c-1.3-1.3-2.5-2.5-3.8-3.8c-2.8-2.8-5.5-5.5-8.3-8.3
		c-0.6-0.6-1.3-1.3-1.9-1.9c-0.8-0.8-2.1-0.8-2.9,0c-1.3,1.3-2.7,2.7-4,4c-1.9,1.9-3.7,3.7-5.6,5.6c-0.2-0.6-0.4-1.2-0.6-1.7
		c-0.6-1.8-1.2-3.6-1.8-5.3c-0.7-2.2-1.5-4.4-2.2-6.5c-0.8-2.4-1.6-4.8-2.4-7.1c-0.8-2.4-1.6-4.8-2.4-7.2c-0.8-2.3-1.5-4.5-2.3-6.8
		c-0.6-1.9-1.3-3.8-1.9-5.7C5.5,6.9,5.3,6.1,5,5.4c0.4,0.1,0.8,0.3,1.2,0.4C8,6.4,9.8,7,11.5,7.6c2.2,0.7,4.4,1.5,6.5,2.2
		c2.4,0.8,4.8,1.6,7.1,2.4c2.4,0.8,4.8,1.6,7.2,2.4c2.3,0.8,4.5,1.5,6.8,2.3c1.9,0.6,3.8,1.3,5.7,1.9c1,0.3,1.9,0.6,2.9,1
		c-0.6,0.6-1.1,1.1-1.7,1.7c-2.1,2.1-4.3,4.3-6.4,6.4c-0.5,0.5-1,1-1.5,1.5c-0.8,0.8-0.8,2.1,0,2.9c1.7,1.7,3.5,3.5,5.2,5.2
		c2.8,2.8,5.5,5.5,8.3,8.3c0.2,0.2,0.3,0.3,0.5,0.5c-0.6,0.6-1.1,1.1-1.7,1.7C49,49.3,47.5,50.8,45.9,52.4z"/>
	<path class="st1" d="M45.9,52.4c-1.3-1.3-2.5-2.5-3.8-3.8c-2.8-2.8-5.5-5.5-8.3-8.3c-0.6-0.6-1.3-1.3-1.9-1.9
		c-0.8-0.8-2.1-0.8-2.9,0c-1.3,1.3-2.7,2.7-4,4c-1.9,1.9-3.7,3.7-5.6,5.6c-0.2-0.6-0.4-1.2-0.6-1.7c-0.6-1.8-1.2-3.6-1.8-5.3
		c-0.7-2.2-1.5-4.4-2.2-6.5c-0.8-2.4-1.6-4.8-2.4-7.1c-0.8-2.4-1.6-4.8-2.4-7.2c-0.8-2.3-1.5-4.5-2.3-6.8c-0.6-1.9-1.3-3.8-1.9-5.7
		C5.5,6.9,5.3,6.1,5,5.4c0.4,0.1,0.8,0.3,1.2,0.4C8,6.4,9.8,7,11.5,7.6c2.2,0.7,4.4,1.5,6.5,2.2c2.4,0.8,4.8,1.6,7.1,2.4
		c2.4,0.8,4.8,1.6,7.2,2.4c2.3,0.8,4.5,1.5,6.8,2.3c1.9,0.6,3.8,1.3,5.7,1.9c1,0.3,1.9,0.6,2.9,1c-0.6,0.6-1.1,1.1-1.7,1.7
		c-2.1,2.1-4.3,4.3-6.4,6.4c-0.5,0.5-1,1-1.5,1.5c-0.8,0.8-0.8,2.1,0,2.9c1.7,1.7,3.5,3.5,5.2,5.2c2.8,2.8,5.5,5.5,8.3,8.3
		c0.2,0.2,0.3,0.3,0.5,0.5c-0.6,0.6-1.1,1.1-1.7,1.7C49,49.3,47.5,50.8,45.9,52.4z"/>
</g>
</svg>
