<?xml version="1.0" encoding="utf-8"?>
<!-- Generator: Adobe Illustrator 25.4.1, SVG Export Plug-In . SVG Version: 6.00 Build 0)  -->
<svg version="1.1" id="Warstwa_1" xmlns="http://www.w3.org/2000/svg" xmlns:xlink="http://www.w3.org/1999/xlink" x="0px" y="0px"
	 viewBox="0 0 275 189.5" style="enable-background:new 0 0 275 189.5;" xml:space="preserve">
<style type="text/css">
	.st0{fill:#D45B5F;}
</style>
<g>
	<path class="st0" d="M239.6,0H35.3C15.8,0,0,15.8,0,35.3v118.8c0,19.5,15.8,35.3,35.3,35.3h204.3c19.5,0,35.3-15.8,35.3-35.3V35.3
		C274.9,15.8,259.1,0,239.6,0z M258.1,154.1c0,5.1-2.1,9.6-5.4,13c-3.4,3.4-8,5.4-13,5.4H35.3c-5.1,0-9.6-2.1-13-5.4
		c-3.4-3.4-5.4-8-5.4-13V35.3c0-5.1,2.1-9.6,5.4-13c3.4-3.4,8-5.4,13-5.4h204.3c5.1,0,9.6,2.1,13,5.4c3.4,3.4,5.4,8,5.4,13V154.1z"
		/>
	<path class="st0" d="M225.8,33.2l-90.1,86.4L45.7,33.2c-3.4-3.2-8.7-3.1-11.9,0.2c-3.2,3.4-3.1,8.7,0.2,11.9l95.8,91.8
		c1.6,1.5,3.6,2.2,5.7,2.3c0.1,0,0.2,0.1,0.3,0.1c0.1,0,0.2,0,0.3-0.1c2,0,4.1-0.8,5.7-2.3l95.8-91.8c3.4-3.2,3.5-8.6,0.2-11.9
		C234.5,30.1,229.1,30,225.8,33.2z"/>
</g>
</svg>
