<?xml version="1.0" encoding="utf-8"?>
<!-- Generator: Adobe Illustrator 25.4.1, SVG Export Plug-In . SVG Version: 6.00 Build 0)  -->
<svg version="1.1" id="Warstwa_1" xmlns="http://www.w3.org/2000/svg" xmlns:xlink="http://www.w3.org/1999/xlink" x="0px" y="0px"
	 viewBox="0 0 71.5 23.7" style="enable-background:new 0 0 71.5 23.7;" xml:space="preserve">
<style type="text/css">
	.st0{fill:#AAAAAA;}
</style>
<g>
	<g>
		<path class="st0" d="M14.6,15.9c-0.5,0.6-1.2,0.9-2.2,0.9s-1.9-0.5-2.8-1.4c-0.9-0.9-1.3-2-1.3-3.3s0.5-2.3,1.3-3.3
			s1.9-1.4,2.9-1.4c0.4,0,0.8,0.1,1.1,0.2c0.3,0.2,0.5,0.3,0.7,0.4c0.2,0.2,0.2,0.2,0.3,0.4c0-0.3,0.2-0.6,0.4-0.8s0.5-0.2,1-0.2
			c0.5,0,0.9,0,1,0.1c0.2,0.1,0.4,0.2,0.5,0.4c0.1,0.2,0.2,0.3,0.2,0.5s0,0.3,0,0.6v7.5c0,1.4-0.5,2.5-1.5,3.3
			c-0.9,0.9-2,1.2-3.3,1.2c-0.9,0-1.8-0.2-2.6-0.7S9,19.6,9,19.2c0-0.5,0.2-0.9,0.5-1.2c0.2-0.2,0.4-0.5,0.5-0.5s0.3-0.2,0.5-0.2
			c0.2,0,0.3,0.1,0.5,0.2c0.5,0.5,1.2,0.7,1.9,0.7c0.5,0,0.9-0.2,1.1-0.5c0.2-0.4,0.5-0.8,0.5-1.3L14.6,15.9L14.6,15.9z M11.3,12.1
			c0,0.4,0.2,0.8,0.5,1.1c0.3,0.3,0.7,0.5,1.1,0.5c0.4,0,0.8-0.2,1.1-0.5s0.5-0.7,0.5-1.1c0-0.4-0.2-0.8-0.4-1.1
			c-0.3-0.3-0.6-0.5-1.1-0.5c-0.5,0-0.9,0.2-1.2,0.5C11.5,11.4,11.3,11.8,11.3,12.1z"/>
		<path class="st0" d="M20,8.6c1-0.9,2.2-1.4,3.5-1.4c1.3,0,2.5,0.5,3.5,1.4c1,0.9,1.5,2.1,1.5,3.6c0,1-0.2,1.9-0.8,2.6
			c-0.5,0.8-1.2,1.3-1.9,1.7c-0.8,0.4-1.5,0.5-2.3,0.5c-0.8,0-1.6-0.2-2.3-0.6c-0.8-0.4-1.4-1-1.9-1.7c-0.5-0.8-0.8-1.6-0.8-2.6
			C18.5,10.8,19,9.6,20,8.6z M22.3,13.5c0.4,0.3,0.8,0.5,1.2,0.5c0.4,0,0.8-0.2,1.2-0.5s0.6-0.8,0.6-1.3c0-0.6-0.2-1-0.5-1.3
			c-0.4-0.3-0.8-0.5-1.2-0.5c-0.5,0-0.9,0.2-1.2,0.5s-0.5,0.8-0.5,1.3C21.7,12.8,21.9,13.2,22.3,13.5z"/>
		<path class="st0" d="M29.5,14.2c0.2-0.2,0.3-0.4,0.5-0.5c0.2-0.1,0.6-0.2,1.2-0.2s0.9,0.1,1.2,0.3c0.2,0.2,0.4,0.6,0.4,1.1v0.3
			c0,0.3,0,0.5,0,0.6c0,0.2-0.1,0.3-0.2,0.5C32.5,16.8,32,17,31.2,17c-0.7,0-1.2-0.2-1.5-0.4c-0.2-0.2-0.4-0.7-0.4-1.4
			C29.3,14.9,29.3,14.5,29.5,14.2z M31.9,12.1c-0.2,0.1-0.5,0.1-0.9,0.1s-0.7,0-0.9-0.1c-0.2-0.1-0.4-0.2-0.5-0.3s-0.2-0.3-0.2-0.4
			c0-0.2,0-0.3,0-0.5V5.2c0-0.2,0-0.5,0-0.5c0-0.2,0.1-0.2,0.2-0.4S29.8,4,30,3.9c0.2-0.1,0.5-0.1,0.9-0.1s0.7,0,0.9,0.1
			c0.2,0.1,0.4,0.2,0.5,0.3c0.1,0.2,0.2,0.3,0.2,0.5s0,0.3,0,0.5V11c0,0.2,0,0.5,0,0.5c0,0.2-0.1,0.2-0.2,0.4
			C32.3,12.1,32.1,12.1,31.9,12.1z"/>
		<path class="st0" d="M38.2,15.2c-0.3-0.4-0.5-0.7-0.5-1s0.2-0.7,0.8-1.2c0.3-0.3,0.6-0.5,0.9-0.5s0.8,0.3,1.4,0.9
			c0.2,0.2,0.4,0.4,0.7,0.6c0.3,0.2,0.6,0.3,0.9,0.3c1.1,0,1.7-0.5,1.7-1.4c0-0.3-0.2-0.5-0.5-0.7s-0.7-0.3-1.2-0.4
			c-0.5-0.1-0.9-0.2-1.5-0.4c-0.5-0.2-1-0.4-1.5-0.7c-0.5-0.2-0.9-0.6-1.2-1.2c-0.3-0.5-0.5-1.2-0.5-2c0-1.1,0.4-2,1.2-2.8
			c0.8-0.8,1.9-1.2,3.3-1.2c0.7,0,1.4,0.1,2,0.3c0.6,0.2,1,0.4,1.2,0.5l0.5,0.3c0.4,0.4,0.5,0.6,0.5,0.9c0,0.2-0.2,0.5-0.5,1
			c-0.4,0.6-0.9,0.9-1.2,0.9c-0.2,0-0.5-0.2-0.9-0.4c0,0-0.1-0.1-0.2-0.2c-0.1-0.1-0.2-0.2-0.3-0.2c-0.2-0.2-0.5-0.2-0.9-0.2
			c-0.4,0-0.7,0.1-1,0.3c-0.2,0.2-0.4,0.5-0.4,0.8c0,0.3,0.2,0.6,0.5,0.8c0.3,0.2,0.7,0.3,1.2,0.4c0.5,0.1,0.9,0.2,1.5,0.3
			c0.5,0.2,1,0.3,1.5,0.5c0.5,0.2,0.9,0.6,1.2,1.2c0.3,0.5,0.5,1.2,0.5,2s-0.2,1.5-0.5,2.1c-0.3,0.6-0.7,1.1-1.2,1.4
			c-1,0.6-2,0.9-3.1,0.9c-0.5,0-1.1-0.1-1.6-0.2c-0.5-0.2-0.9-0.3-1.2-0.5c-0.6-0.4-1.1-0.8-1.3-1.1L38.2,15.2z"/>
		<path class="st0" d="M62.4,4.2c0.1,0.2,0.2,0.3,0.2,0.5s0,0.4,0,0.6v10.1c0,0.9-0.2,1.3-0.7,1.5C61.6,17,61.3,17,61,17
			c-0.3,0-0.6,0-0.9-0.1c-0.2-0.1-0.4-0.2-0.5-0.2c-0.1-0.1-0.2-0.2-0.2-0.4c-0.1-0.2-0.1-0.5-0.1-0.9V9.3c-0.3,0.4-0.8,0.9-1.3,1.8
			s-0.9,1.3-1.1,1.6s-0.2,0.3-0.3,0.4s-0.2,0.2-0.5,0.3c-0.2,0.2-0.5,0.2-0.8,0.2c-0.3,0-0.5-0.1-0.8-0.2c-0.2-0.2-0.4-0.2-0.5-0.4
			L54,12.8c-0.2-0.3-0.7-0.9-1.4-1.9c-0.7-1-1.1-1.6-1.2-1.6v6.1c0,0.3,0,0.5,0,0.6c0,0.2-0.1,0.3-0.2,0.5c-0.2,0.3-0.6,0.5-1.4,0.5
			c-0.7,0-1.2-0.2-1.4-0.5c-0.1-0.2-0.2-0.3-0.2-0.5c0-0.2,0-0.4,0-0.6V5.3c0-0.3,0-0.5,0-0.6c0-0.2,0.1-0.3,0.2-0.5
			c0.2-0.3,0.6-0.5,1.4-0.5c0.3,0,0.6,0,0.9,0.2c0.2,0.1,0.4,0.2,0.5,0.2l0.1,0.1l4.1,5.4c2-2.7,3.4-4.5,4.1-5.4
			C59.7,4,60.2,3.8,61,3.8C61.7,3.8,62.2,3.9,62.4,4.2z"/>
	</g>
</g>
</svg>
