<?xml version="1.0" encoding="utf-8"?>
<!-- Generator: Adobe Illustrator 25.4.1, SVG Export Plug-In . SVG Version: 6.00 Build 0)  -->
<svg version="1.1" id="Warstwa_1" xmlns="http://www.w3.org/2000/svg" xmlns:xlink="http://www.w3.org/1999/xlink" x="0px" y="0px"
	 viewBox="0 0 112.9 53.7" style="enable-background:new 0 0 112.9 53.7;" xml:space="preserve">
<style type="text/css">
	.st0{fill:#AAAAAA;}
</style>
<g>
	<path class="st0" d="M61.7,14.1c0.7-0.5,1.3-1.1,1.8-1.7c0.5-0.6,0.9-1.4,1.1-2.2c0.3-0.8,0.4-1.6,0.4-2.5c0-1.1-0.2-2.2-0.6-3.1
		c-0.4-0.9-1-1.7-1.8-2.4c-0.8-0.7-1.9-1.2-3.2-1.6C58.2,0.2,56.7,0,54.9,0h-8.1v26.6h4.9V16.2c0,0,4.7,0,7.5-1
		C60.2,15,61,14.6,61.7,14.1z M57.2,12.3c-0.7,0.2-1.5,0.3-2.4,0.3h-3.1V3.8h3.2c1.8,0,3.2,0.4,4.1,1.1c0.9,0.7,1.3,1.8,1.3,3.1
		c0,0.7-0.1,1.3-0.3,1.9c-0.2,0.6-0.6,1.1-1,1.5C58.5,11.8,57.9,12.1,57.2,12.3z"/>
	<path class="st0" d="M61.8,18c-1.6,1.1-3.7,1.1-4.7,1.2l4.1,6.5c0.2,0.3,0.5,0.6,0.8,0.7c0.3,0.2,0.7,0.3,1.1,0.3h4.5L61.8,18z"/>
</g>
<g>
	<g>
		<path class="st0" d="M10.3,39c-0.1,0.2-0.2,0.3-0.3,0.4s-0.2,0.1-0.4,0.1c-0.2,0-0.3-0.1-0.5-0.2c-0.2-0.1-0.4-0.3-0.7-0.4
			c-0.3-0.1-0.6-0.3-0.9-0.4c-0.4-0.1-0.8-0.2-1.3-0.2c-0.4,0-0.8,0.1-1.1,0.2c-0.3,0.1-0.6,0.3-0.8,0.4c-0.2,0.2-0.4,0.4-0.5,0.7
			s-0.2,0.5-0.2,0.9c0,0.4,0.1,0.7,0.3,1c0.2,0.3,0.5,0.5,0.9,0.7c0.4,0.2,0.8,0.4,1.2,0.5c0.5,0.1,0.9,0.3,1.4,0.5
			c0.5,0.2,1,0.4,1.4,0.6c0.5,0.2,0.9,0.5,1.2,0.8c0.4,0.3,0.7,0.8,0.9,1.2c0.2,0.5,0.3,1.1,0.3,1.8c0,0.8-0.1,1.5-0.4,2.1
			c-0.3,0.7-0.6,1.2-1.1,1.7c-0.5,0.5-1.1,0.9-1.8,1.2S6.5,53,5.6,53C5,53,4.5,52.9,4,52.8c-0.5-0.1-1-0.3-1.5-0.5
			C2,52.2,1.5,52,1.1,51.7c-0.4-0.3-0.8-0.6-1.1-0.9l0.9-1.5C1,49.2,1.1,49.1,1.2,49c0.1-0.1,0.3-0.1,0.4-0.1c0.2,0,0.4,0.1,0.6,0.2
			c0.2,0.2,0.5,0.3,0.8,0.5s0.7,0.4,1.1,0.5c0.4,0.2,0.9,0.2,1.5,0.2c0.9,0,1.6-0.2,2.1-0.6c0.5-0.4,0.7-1,0.7-1.8
			c0-0.4-0.1-0.8-0.3-1.1s-0.5-0.5-0.9-0.7C6.9,46,6.5,45.8,6,45.7c-0.5-0.1-0.9-0.3-1.4-0.4c-0.5-0.2-1-0.3-1.4-0.6
			c-0.5-0.2-0.9-0.5-1.2-0.9C1.5,43.5,1.2,43,1,42.5c-0.2-0.5-0.3-1.2-0.3-1.9c0-0.6,0.1-1.2,0.4-1.8c0.2-0.6,0.6-1.1,1.1-1.6
			c0.5-0.5,1-0.8,1.7-1.1s1.5-0.4,2.4-0.4c1,0,1.9,0.2,2.8,0.5c0.8,0.3,1.6,0.7,2.1,1.3L10.3,39z"/>
		<path class="st0" d="M18.5,40.6c0.9,0,1.7,0.1,2.4,0.4s1.4,0.7,1.9,1.2s0.9,1.2,1.2,1.9c0.3,0.8,0.4,1.6,0.4,2.6
			c0,1-0.1,1.8-0.4,2.6c-0.3,0.8-0.7,1.4-1.2,2c-0.5,0.5-1.1,1-1.9,1.2S19.4,53,18.5,53c-0.9,0-1.7-0.1-2.4-0.4s-1.4-0.7-1.9-1.2
			c-0.5-0.5-0.9-1.2-1.2-2c-0.3-0.8-0.4-1.6-0.4-2.6c0-0.9,0.1-1.8,0.4-2.6c0.3-0.8,0.7-1.4,1.2-1.9s1.1-0.9,1.9-1.2
			S17.6,40.6,18.5,40.6z M18.5,50.8c1,0,1.7-0.3,2.2-1c0.5-0.7,0.7-1.7,0.7-2.9c0-1.3-0.2-2.3-0.7-3c-0.5-0.7-1.2-1-2.2-1
			c-1,0-1.8,0.3-2.2,1s-0.7,1.7-0.7,2.9s0.2,2.3,0.7,2.9S17.5,50.8,18.5,50.8z"/>
		<path class="st0" d="M34.7,43.3c-0.1,0.1-0.2,0.2-0.2,0.3s-0.2,0.1-0.4,0.1c-0.1,0-0.3,0-0.4-0.1s-0.3-0.2-0.5-0.3
			S32.8,43,32.5,43c-0.3-0.1-0.6-0.1-1-0.1c-0.5,0-1,0.1-1.3,0.3c-0.4,0.2-0.7,0.4-1,0.8c-0.3,0.3-0.4,0.8-0.6,1.2
			c-0.1,0.5-0.2,1-0.2,1.7c0,0.6,0.1,1.2,0.2,1.7c0.1,0.5,0.3,0.9,0.6,1.3c0.3,0.3,0.6,0.6,0.9,0.8c0.4,0.2,0.8,0.3,1.2,0.3
			s0.8-0.1,1.1-0.2s0.5-0.2,0.7-0.4c0.2-0.1,0.4-0.3,0.5-0.4c0.1-0.1,0.3-0.2,0.5-0.2c0.2,0,0.4,0.1,0.5,0.3l0.8,1.1
			c-0.3,0.4-0.7,0.7-1,0.9c-0.4,0.3-0.8,0.5-1.2,0.6c-0.4,0.2-0.8,0.3-1.2,0.3c-0.4,0.1-0.8,0.1-1.3,0.1c-0.7,0-1.4-0.1-2.1-0.4
			s-1.2-0.7-1.7-1.2c-0.5-0.5-0.9-1.2-1.2-1.9c-0.3-0.8-0.4-1.6-0.4-2.6c0-0.9,0.1-1.7,0.4-2.4c0.3-0.8,0.6-1.4,1.1-2s1.1-1,1.8-1.3
			s1.6-0.5,2.5-0.5c0.9,0,1.7,0.1,2.4,0.4s1.3,0.7,1.8,1.2L34.7,43.3z"/>
		<path class="st0" d="M40.3,37.3c0,0.2-0.1,0.5-0.2,0.7c-0.1,0.2-0.2,0.4-0.4,0.6c-0.2,0.2-0.4,0.3-0.6,0.4
			c-0.2,0.1-0.5,0.1-0.7,0.1c-0.2,0-0.5,0-0.7-0.1c-0.2-0.1-0.4-0.2-0.6-0.4c-0.2-0.2-0.3-0.4-0.4-0.6s-0.1-0.5-0.1-0.7
			c0-0.3,0-0.5,0.1-0.7c0.1-0.2,0.2-0.4,0.4-0.6c0.2-0.2,0.4-0.3,0.6-0.4c0.2-0.1,0.5-0.1,0.7-0.1c0.3,0,0.5,0,0.7,0.1
			c0.2,0.1,0.4,0.2,0.6,0.4c0.2,0.2,0.3,0.4,0.4,0.6C40.3,36.8,40.3,37.1,40.3,37.3z M39.9,40.8v12H37v-12H39.9z"/>
		<path class="st0" d="M42.1,42.5c1.4-1.3,3-1.9,5-1.9c0.7,0,1.3,0.1,1.9,0.3c0.6,0.2,1,0.5,1.4,1c0.4,0.4,0.7,0.9,0.9,1.5
			c0.2,0.6,0.3,1.2,0.3,1.9v7.6h-1.3c-0.3,0-0.5,0-0.6-0.1s-0.3-0.2-0.3-0.5L49,51.3c-0.3,0.3-0.6,0.5-0.9,0.7
			c-0.3,0.2-0.6,0.4-0.9,0.5c-0.3,0.1-0.6,0.2-1,0.3c-0.4,0.1-0.7,0.1-1.2,0.1c-0.5,0-1-0.1-1.4-0.2c-0.4-0.1-0.8-0.3-1.1-0.6
			c-0.3-0.3-0.6-0.6-0.7-1c-0.2-0.4-0.3-0.9-0.3-1.4c0-0.3,0.1-0.6,0.2-0.9s0.3-0.6,0.5-0.9c0.2-0.3,0.5-0.5,0.9-0.8
			c0.4-0.2,0.8-0.5,1.3-0.6c0.5-0.2,1.2-0.3,1.9-0.4c0.7-0.1,1.5-0.2,2.4-0.2v-0.7c0-0.8-0.2-1.4-0.5-1.8c-0.3-0.4-0.8-0.6-1.5-0.6
			c-0.5,0-0.9,0.1-1.2,0.2c-0.3,0.1-0.6,0.2-0.8,0.4c-0.2,0.1-0.4,0.3-0.6,0.4c-0.2,0.1-0.4,0.2-0.6,0.2c-0.2,0-0.4-0.1-0.5-0.2
			c-0.1-0.1-0.3-0.2-0.3-0.4L42.1,42.5z M48.7,47.7c-0.8,0-1.5,0.1-2.1,0.2c-0.6,0.1-1,0.2-1.4,0.4c-0.3,0.2-0.6,0.4-0.7,0.6
			c-0.1,0.2-0.2,0.5-0.2,0.7c0,0.5,0.2,0.9,0.4,1.1c0.3,0.2,0.7,0.3,1.2,0.3c0.6,0,1.1-0.1,1.5-0.3c0.4-0.2,0.9-0.5,1.3-1V47.7z"/>
		<path class="st0" d="M56.7,35.4v17.4h-2.9V35.4H56.7z"/>
		<path class="st0" d="M78,52.8h-2.8c-0.5,0-0.9-0.2-1.2-0.6l-3.6-5.4c-0.1-0.2-0.3-0.3-0.4-0.4c-0.2-0.1-0.4-0.1-0.7-0.1H68v6.6
			h-3.1V35.9H70c1.1,0,2.1,0.1,2.9,0.4s1.5,0.6,2,1c0.5,0.4,0.9,0.9,1.2,1.5c0.2,0.6,0.4,1.3,0.4,2c0,0.6-0.1,1.1-0.2,1.6
			c-0.2,0.5-0.4,1-0.7,1.4c-0.3,0.4-0.7,0.8-1.2,1.1c-0.5,0.3-1,0.6-1.6,0.7c0.2,0.1,0.4,0.3,0.6,0.4c0.2,0.2,0.3,0.3,0.5,0.6
			L78,52.8z M69.9,43.9c0.6,0,1.1-0.1,1.5-0.2c0.4-0.1,0.8-0.4,1.1-0.6c0.3-0.3,0.5-0.6,0.6-0.9c0.1-0.4,0.2-0.8,0.2-1.2
			c0-0.9-0.3-1.5-0.8-2c-0.6-0.5-1.4-0.7-2.6-0.7h-2v5.6H69.9z"/>
		<path class="st0" d="M83.4,40.6c0.9,0,1.7,0.1,2.4,0.4s1.4,0.7,1.9,1.2s0.9,1.2,1.2,1.9c0.3,0.8,0.4,1.6,0.4,2.6
			c0,1-0.1,1.8-0.4,2.6c-0.3,0.8-0.7,1.4-1.2,2c-0.5,0.5-1.1,1-1.9,1.2S84.3,53,83.4,53c-0.9,0-1.7-0.1-2.4-0.4s-1.4-0.7-1.9-1.2
			c-0.5-0.5-0.9-1.2-1.2-2c-0.3-0.8-0.4-1.6-0.4-2.6c0-0.9,0.1-1.8,0.4-2.6c0.3-0.8,0.7-1.4,1.2-1.9s1.1-0.9,1.9-1.2
			S82.5,40.6,83.4,40.6z M83.4,50.8c1,0,1.7-0.3,2.2-1s0.7-1.7,0.7-2.9c0-1.3-0.2-2.3-0.7-3s-1.2-1-2.2-1c-1,0-1.8,0.3-2.2,1
			c-0.5,0.7-0.7,1.7-0.7,2.9s0.2,2.3,0.7,2.9C81.7,50.4,82.4,50.8,83.4,50.8z"/>
		<path class="st0" d="M90.8,42.5c1.4-1.3,3-1.9,5-1.9c0.7,0,1.3,0.1,1.9,0.3c0.6,0.2,1,0.5,1.4,1c0.4,0.4,0.7,0.9,0.9,1.5
			s0.3,1.2,0.3,1.9v7.6h-1.3c-0.3,0-0.5,0-0.6-0.1c-0.1-0.1-0.3-0.2-0.4-0.5l-0.3-0.9c-0.3,0.3-0.6,0.5-0.9,0.7
			c-0.3,0.2-0.6,0.4-0.9,0.5c-0.3,0.1-0.6,0.2-1,0.3c-0.4,0.1-0.7,0.1-1.2,0.1c-0.5,0-1-0.1-1.4-0.2c-0.4-0.1-0.8-0.3-1.1-0.6
			c-0.3-0.3-0.6-0.6-0.7-1c-0.2-0.4-0.3-0.9-0.3-1.4c0-0.3,0.1-0.6,0.2-0.9c0.1-0.3,0.3-0.6,0.5-0.9c0.2-0.3,0.5-0.5,0.9-0.8
			c0.4-0.2,0.8-0.5,1.3-0.6c0.5-0.2,1.2-0.3,1.9-0.4c0.7-0.1,1.5-0.2,2.4-0.2v-0.7c0-0.8-0.2-1.4-0.5-1.8c-0.3-0.4-0.8-0.6-1.5-0.6
			c-0.5,0-0.9,0.1-1.2,0.2c-0.3,0.1-0.6,0.2-0.8,0.4c-0.2,0.1-0.4,0.3-0.6,0.4c-0.2,0.1-0.4,0.2-0.6,0.2c-0.2,0-0.4-0.1-0.5-0.2
			c-0.1-0.1-0.3-0.2-0.3-0.4L90.8,42.5z M97.4,47.7c-0.8,0-1.5,0.1-2.1,0.2c-0.6,0.1-1,0.2-1.4,0.4c-0.3,0.2-0.6,0.4-0.7,0.6
			c-0.1,0.2-0.2,0.5-0.2,0.7c0,0.5,0.2,0.9,0.5,1.1c0.3,0.2,0.7,0.3,1.2,0.3c0.6,0,1.1-0.1,1.5-0.3c0.4-0.2,0.9-0.5,1.3-1V47.7z"/>
		<path class="st0" d="M112.9,35.4v17.4h-1.8c-0.4,0-0.6-0.2-0.7-0.5l-0.2-1.2c-0.5,0.6-1,1-1.7,1.3s-1.4,0.5-2.2,0.5
			c-0.7,0-1.3-0.1-1.8-0.4c-0.5-0.3-1-0.7-1.4-1.2c-0.4-0.5-0.7-1.2-0.9-1.9c-0.2-0.8-0.3-1.6-0.3-2.6c0-0.9,0.1-1.7,0.4-2.5
			c0.2-0.8,0.6-1.4,1-2s1-1,1.6-1.3c0.6-0.3,1.3-0.5,2.1-0.5c0.7,0,1.2,0.1,1.7,0.3c0.5,0.2,0.9,0.5,1.3,0.9v-6.3H112.9z M110,43.9
			c-0.3-0.4-0.7-0.7-1.1-0.8c-0.4-0.2-0.8-0.2-1.2-0.2c-0.4,0-0.8,0.1-1.2,0.2c-0.4,0.2-0.7,0.4-0.9,0.7c-0.2,0.3-0.4,0.8-0.6,1.3
			s-0.2,1.1-0.2,1.8c0,0.7,0.1,1.3,0.2,1.8c0.1,0.5,0.3,0.9,0.5,1.2c0.2,0.3,0.5,0.5,0.8,0.7c0.3,0.1,0.6,0.2,1,0.2
			c0.6,0,1.1-0.1,1.5-0.4s0.8-0.6,1.2-1.1V43.9z"/>
	</g>
</g>
</svg>
