<svg xmlns="http://www.w3.org/2000/svg" version="1.1" xmlns:xlink="http://www.w3.org/1999/xlink" xmlns:svgjs="http://svgjs.com/svgjs" width="1920" height="1080" preserveAspectRatio="none" viewBox="0 0 1920 1080"><g mask="url(&quot;#SvgjsMask1027&quot;)" fill="none"><rect width="1920" height="1080" x="0" y="0" fill="rgba(255, 255, 255, 1)"></rect><path d="M1245.81 384.59L1353.1 384.59L1353.1 415.52L1245.81 415.52z" stroke="rgba(69, 172, 220, 1)"></path><path d="M1509.13 279.63 a21.81 21.81 0 1 0 43.62 0 a21.81 21.81 0 1 0 -43.62 0z" stroke="rgba(252, 68, 68, 1)"></path><path d="M1133.34 897.96L1153.68 897.96L1153.68 931.14L1133.34 931.14z" stroke="rgba(252, 68, 68, 1)"></path><path d="M1532.32 147.3L1555.84 147.3L1555.84 170.82L1532.32 170.82z" fill="rgba(252, 68, 68, 1)"></path><path d="M1385.92 365.5L1464.58 365.5L1464.58 444.16L1385.92 444.16z" stroke="rgba(69, 172, 220, 1)"></path><path d="M1008.29 378.4 a8.06 8.06 0 1 0 16.12 0 a8.06 8.06 0 1 0 -16.12 0z" fill="rgba(252, 68, 68, 1)"></path><path d="M1803.56 732.14L1821.08 732.14L1821.08 780.91L1803.56 780.91z" fill="rgba(252, 68, 68, 1)"></path><path d="M1286.49 1078.19 a86.34 86.34 0 1 0 172.68 0 a86.34 86.34 0 1 0 -172.68 0z" stroke="rgba(69, 172, 220, 1)"></path><path d="M268.83 138.98L351.83 138.98L351.83 221.98L268.83 221.98z" stroke="rgba(69, 172, 220, 1)"></path><path d="M474.78 666.76 a79.09 79.09 0 1 0 158.18 0 a79.09 79.09 0 1 0 -158.18 0z" stroke="rgba(252, 68, 68, 1)"></path><path d="M574.16 1027.01a35.68 35.68 0 1 0 66.46-26z" stroke="rgba(252, 68, 68, 1)"></path><path d="M409.83 929.79L421.55 929.79L421.55 941.51L409.83 941.51z" stroke="rgba(69, 172, 220, 1)"></path><path d="M1758.87 432.81L1806.38 432.81L1806.38 480.32L1758.87 480.32z" stroke="rgba(252, 68, 68, 1)"></path><path d="M834.48 142.23 a13.6 13.6 0 1 0 27.2 0 a13.6 13.6 0 1 0 -27.2 0z" stroke="rgba(69, 172, 220, 1)"></path><path d="M1721.18 569.73L1826.11 569.73L1826.11 674.66L1721.18 674.66z" fill="rgba(69, 172, 220, 1)"></path><path d="M593.58 1073.75 a88.36 88.36 0 1 0 176.72 0 a88.36 88.36 0 1 0 -176.72 0z" fill="rgba(252, 68, 68, 1)"></path><path d="M-3.04 446.05a7.7 7.7 0 1 0 11.16-10.62z" stroke="rgba(69, 172, 220, 1)"></path><path d="M416.5 376.96L469.61 376.96L469.61 430.07L416.5 430.07z" fill="rgba(252, 68, 68, 1)"></path><path d="M535.17 173.85L574.2 173.85L574.2 212.88L535.17 212.88z" stroke="rgba(69, 172, 220, 1)"></path><path d="M686.86 775.96L771.74 775.96L771.74 860.84L686.86 860.84z" fill="rgba(252, 68, 68, 1)"></path><path d="M1680.93 27.5L1729.97 27.5L1729.97 76.54L1680.93 76.54z" stroke="rgba(69, 172, 220, 1)"></path><path d="M32.65 345.09a101.31 101.31 0 1 0 200.98-25.77z" fill="rgba(252, 68, 68, 1)"></path><path d="M608.43 615.58a73.03 73.03 0 1 0 80.39-121.96z" stroke="rgba(252, 68, 68, 1)"></path></g><defs><mask id="SvgjsMask1027"><rect width="1920" height="1080" fill="#ffffff"></rect></mask></defs></svg>